%FSLAX44Y44*%
%MOMM*%
G71*
G01*
G75*
G04 Layer_Physical_Order=2*
G04 Layer_Color=16711680*
%ADD10C,0.5000*%
%ADD11C,1.0000*%
%ADD12C,1.2000*%
%ADD13C,6.5000*%
%ADD14C,0.6000*%
%ADD15R,3.0000X1.2000*%
%ADD16R,3.3000X1.0000*%
%ADD17R,3.3000X1.3000*%
%ADD18R,0.9200X2.3400*%
%ADD19R,0.7200X2.3400*%
%ADD20R,1.0000X1.0000*%
%ADD21R,0.9000X1.0000*%
%ADD22R,1.5000X0.6000*%
G36*
X876000Y1179935D02*
X912367D01*
X923435Y1168867D01*
Y1114690D01*
X923693Y1112732D01*
X924449Y1110908D01*
X925651Y1109341D01*
X971435Y1063557D01*
Y969500D01*
X971693Y967542D01*
X972449Y965718D01*
X973651Y964151D01*
X1005966Y931836D01*
X1005875Y930570D01*
X1005247Y930098D01*
X984112D01*
X902098Y1012112D01*
Y1125000D01*
X901710Y1126951D01*
X900605Y1128605D01*
X893500Y1135710D01*
Y1146000D01*
X861000D01*
Y1154500D01*
X893500D01*
Y1155982D01*
X894000Y1156392D01*
X896146Y1156819D01*
X897965Y1158035D01*
X899181Y1159854D01*
X899608Y1162000D01*
X899181Y1164146D01*
X897965Y1165965D01*
X896146Y1167181D01*
X894000Y1167608D01*
X893500Y1168018D01*
Y1171500D01*
X861000D01*
Y1180000D01*
X875509D01*
X876000Y1179935D01*
D02*
G37*
G36*
X1717500Y1154000D02*
X1750000D01*
Y1145500D01*
X1717500D01*
Y1142098D01*
X1711270D01*
X1711146Y1142181D01*
X1709000Y1142608D01*
X1706854Y1142181D01*
X1705035Y1140965D01*
X1703819Y1139146D01*
X1703392Y1137000D01*
X1703819Y1134854D01*
X1705035Y1133035D01*
X1706854Y1131819D01*
X1709000Y1131392D01*
X1711146Y1131819D01*
X1711270Y1131902D01*
X1717500D01*
Y1128500D01*
X1750000D01*
Y1002000D01*
X1717500D01*
Y998598D01*
X1715500D01*
X1713549Y998210D01*
X1711895Y997105D01*
X1634888Y920098D01*
X1630967D01*
X1630481Y921271D01*
X1700605Y991395D01*
X1701710Y993049D01*
X1701774Y993373D01*
X1702098Y995000D01*
Y1149888D01*
X1709612Y1157402D01*
X1717500D01*
Y1154000D01*
D02*
G37*
G36*
X1428395Y911395D02*
X1428518Y911313D01*
X1428149Y910098D01*
X1245851D01*
X1245482Y911313D01*
X1245605Y911395D01*
X1319112Y984902D01*
X1354888D01*
X1428395Y911395D01*
D02*
G37*
G36*
X1355421Y1777438D02*
X1357196Y1776075D01*
X1359264Y1775219D01*
X1361483Y1774927D01*
X1735000D01*
X1735557Y1775000D01*
X1750000D01*
Y1766500D01*
X1735557D01*
X1735000Y1766573D01*
X1402983D01*
X1400764Y1766281D01*
X1398696Y1765425D01*
X1396920Y1764062D01*
X1350432Y1717573D01*
X1323569D01*
X1277579Y1763562D01*
X1277014Y1763996D01*
X1276580Y1764562D01*
X1274804Y1765925D01*
X1272736Y1766781D01*
X1270517Y1767073D01*
X876000D01*
X875443Y1767000D01*
X861000D01*
Y1775500D01*
X875443D01*
X876000Y1775427D01*
X1313017D01*
X1315236Y1775719D01*
X1316698Y1776324D01*
X1317304Y1776575D01*
X1319079Y1777938D01*
X1323569Y1782427D01*
X1350432D01*
X1355421Y1777438D01*
D02*
G37*
G36*
X876000Y1698927D02*
X1038416D01*
X1038824Y1697724D01*
X1037962Y1697062D01*
X1030938Y1690038D01*
X1029575Y1688263D01*
X1028719Y1686195D01*
X1028427Y1683976D01*
Y1674000D01*
X1018000D01*
Y1659000D01*
X1056000D01*
Y1674000D01*
X1045573D01*
Y1680425D01*
X1047575Y1682427D01*
X1265449D01*
X1292938Y1654938D01*
X1294713Y1653575D01*
X1296781Y1652719D01*
X1299000Y1652427D01*
X1375000D01*
X1377219Y1652719D01*
X1378681Y1653324D01*
X1379287Y1653575D01*
X1381062Y1654938D01*
X1409551Y1683427D01*
X1626449D01*
X1628427Y1681449D01*
Y1674000D01*
X1618000D01*
Y1659000D01*
X1656000D01*
Y1674000D01*
X1645573D01*
Y1685000D01*
X1645281Y1687219D01*
X1644425Y1689287D01*
X1643062Y1691062D01*
X1636871Y1697253D01*
X1637357Y1698427D01*
X1735000D01*
X1735557Y1698500D01*
X1750000D01*
Y1572000D01*
X1735557D01*
X1735000Y1572073D01*
X1704500D01*
X1702281Y1571781D01*
X1700213Y1570925D01*
X1698438Y1569562D01*
X1678449Y1549573D01*
X1651551D01*
X1645573Y1555551D01*
Y1626000D01*
X1656000D01*
Y1641000D01*
X1618000D01*
Y1626000D01*
X1628427D01*
Y1552000D01*
X1628719Y1549781D01*
X1629324Y1548319D01*
X1629575Y1547713D01*
X1630938Y1545938D01*
X1641938Y1534938D01*
X1643713Y1533575D01*
X1645781Y1532719D01*
X1648000Y1532427D01*
X1682000D01*
X1684219Y1532719D01*
X1686287Y1533575D01*
X1688062Y1534938D01*
X1708051Y1554927D01*
X1735000D01*
X1735557Y1555000D01*
X1750000D01*
Y1546500D01*
X1735557D01*
X1735000Y1546573D01*
X1706000D01*
X1703781Y1546281D01*
X1701713Y1545425D01*
X1699938Y1544062D01*
X1673449Y1517573D01*
X1497000D01*
X1494781Y1517281D01*
X1492713Y1516425D01*
X1490938Y1515062D01*
X1404938Y1429062D01*
X1403575Y1427287D01*
X1403324Y1426681D01*
X1402719Y1425219D01*
X1402427Y1423000D01*
Y1100551D01*
X1383449Y1081573D01*
X1363551D01*
X1345573Y1099551D01*
Y1126000D01*
X1356000D01*
Y1141000D01*
X1318000D01*
Y1126000D01*
X1328427D01*
Y1096000D01*
X1328719Y1093781D01*
X1329575Y1091713D01*
X1330938Y1089938D01*
X1353938Y1066938D01*
X1355713Y1065575D01*
X1356747Y1065147D01*
X1357781Y1064719D01*
X1360000Y1064427D01*
X1387000D01*
X1389219Y1064719D01*
X1390681Y1065324D01*
X1391287Y1065575D01*
X1393062Y1066938D01*
X1417062Y1090938D01*
X1418425Y1092713D01*
X1418853Y1093747D01*
X1419281Y1094781D01*
X1419573Y1097000D01*
Y1332782D01*
X1420712Y1333343D01*
X1421713Y1332575D01*
X1423781Y1331719D01*
X1426000Y1331427D01*
X1428219Y1331719D01*
X1430287Y1332575D01*
X1432062Y1333938D01*
X1433425Y1335713D01*
X1434281Y1337781D01*
X1434573Y1340000D01*
Y1341427D01*
X1519150D01*
Y1335800D01*
X1531350D01*
Y1364200D01*
X1519150D01*
Y1358573D01*
X1434573D01*
Y1360000D01*
X1434281Y1362219D01*
X1433425Y1364287D01*
X1432062Y1366062D01*
X1430287Y1367425D01*
X1428219Y1368281D01*
X1426000Y1368573D01*
X1423781Y1368281D01*
X1421713Y1367425D01*
X1420712Y1366657D01*
X1419573Y1367218D01*
Y1419449D01*
X1500551Y1500427D01*
X1677000D01*
X1679219Y1500719D01*
X1681287Y1501575D01*
X1682885Y1502802D01*
X1683722Y1501847D01*
X1638938Y1457062D01*
X1637575Y1455287D01*
X1636719Y1453219D01*
X1636427Y1451000D01*
Y1421655D01*
X1573345Y1358573D01*
X1554850D01*
Y1364200D01*
X1542650D01*
Y1335800D01*
X1554850D01*
Y1341427D01*
X1576896D01*
X1579115Y1341719D01*
X1581183Y1342575D01*
X1582958Y1343938D01*
X1651062Y1412042D01*
X1652425Y1413817D01*
X1653281Y1415885D01*
X1653573Y1418104D01*
Y1447449D01*
X1687097Y1480972D01*
X1688153Y1480267D01*
X1687719Y1479219D01*
X1687427Y1477000D01*
Y1297551D01*
X1630938Y1241062D01*
X1629575Y1239287D01*
X1628719Y1237219D01*
X1628427Y1235000D01*
Y1074000D01*
X1618000D01*
Y1059000D01*
X1656000D01*
Y1074000D01*
X1645573D01*
Y1231449D01*
X1702062Y1287938D01*
X1703425Y1289713D01*
X1704281Y1291781D01*
X1704573Y1294000D01*
Y1473449D01*
X1709551Y1478427D01*
X1735000D01*
X1735557Y1478500D01*
X1750000D01*
Y1222000D01*
X1717500D01*
Y1218598D01*
X1713770D01*
X1713646Y1218681D01*
X1711500Y1219108D01*
X1709354Y1218681D01*
X1707535Y1217465D01*
X1706319Y1215646D01*
X1705892Y1213500D01*
X1706319Y1211354D01*
X1707535Y1209535D01*
X1709354Y1208319D01*
X1711500Y1207892D01*
X1713646Y1208319D01*
X1713770Y1208402D01*
X1717500D01*
Y1205000D01*
X1750000D01*
Y1196500D01*
X1717500D01*
Y1195565D01*
X1715000D01*
X1715000Y1195565D01*
X1713042Y1195307D01*
X1711218Y1194551D01*
X1709651Y1193349D01*
X1709651Y1193349D01*
X1680151Y1163849D01*
X1678949Y1162282D01*
X1678728Y1161748D01*
X1678193Y1160458D01*
X1677935Y1158500D01*
Y1002897D01*
X1646597Y971558D01*
X1645457Y972120D01*
X1645573Y973000D01*
Y1026000D01*
X1656000D01*
Y1041000D01*
X1618000D01*
Y1026000D01*
X1628427D01*
Y976551D01*
X1612449Y960573D01*
X1477551D01*
X1391062Y1047062D01*
X1389287Y1048425D01*
X1388681Y1048676D01*
X1387219Y1049281D01*
X1385000Y1049573D01*
X1287000D01*
X1284781Y1049281D01*
X1284176Y1049030D01*
X1282713Y1048425D01*
X1280938Y1047062D01*
X1195449Y961573D01*
X1053551D01*
X1045573Y969551D01*
Y1026000D01*
X1056000D01*
Y1041000D01*
X1018000D01*
Y1026000D01*
X1028427D01*
Y966000D01*
X1028719Y963781D01*
X1029575Y961713D01*
X1030938Y959938D01*
X1043938Y946938D01*
X1045713Y945575D01*
X1046353Y945310D01*
X1046105Y944065D01*
X1015133D01*
X986565Y972634D01*
Y1066690D01*
X986565Y1066690D01*
X986307Y1068648D01*
X985551Y1070472D01*
X984349Y1072039D01*
X938565Y1117823D01*
Y1172000D01*
X938307Y1173958D01*
X937551Y1175782D01*
X936349Y1177349D01*
X920849Y1192849D01*
X919282Y1194051D01*
X917458Y1194807D01*
X915500Y1195065D01*
X893500D01*
Y1197000D01*
X861000D01*
Y1205500D01*
X888290D01*
X891790Y1202000D01*
X891819Y1201854D01*
X893035Y1200035D01*
X894854Y1198819D01*
X897000Y1198392D01*
X899146Y1198819D01*
X900965Y1200035D01*
X902181Y1201854D01*
X902608Y1204000D01*
X902181Y1206146D01*
X900965Y1207965D01*
X899146Y1209181D01*
X899000Y1209210D01*
X893500Y1214710D01*
Y1222500D01*
X861000D01*
Y1479000D01*
X875443D01*
X876000Y1478927D01*
X894949D01*
X928427Y1445449D01*
Y1261000D01*
X928719Y1258781D01*
X929575Y1256713D01*
X930938Y1254938D01*
X1028427Y1157449D01*
Y1074000D01*
X1018000D01*
Y1059000D01*
X1056000D01*
Y1074000D01*
X1045573D01*
Y1161000D01*
X1045281Y1163219D01*
X1044425Y1165287D01*
X1043062Y1167062D01*
X945573Y1264551D01*
Y1449000D01*
X945281Y1451219D01*
X944676Y1452681D01*
X944425Y1453287D01*
X943062Y1455062D01*
X904562Y1493562D01*
X902787Y1494925D01*
X900719Y1495781D01*
X898500Y1496073D01*
X876000D01*
X875443Y1496000D01*
X861000D01*
Y1504500D01*
X875443D01*
X876000Y1504427D01*
X897449D01*
X1015438Y1386438D01*
X1017213Y1385075D01*
X1017819Y1384825D01*
X1019281Y1384219D01*
X1021500Y1383927D01*
X1051053D01*
X1091042Y1343938D01*
X1092817Y1342575D01*
X1093423Y1342324D01*
X1094885Y1341719D01*
X1097104Y1341427D01*
X1119150D01*
Y1335800D01*
X1131350D01*
Y1364200D01*
X1119150D01*
Y1358573D01*
X1100655D01*
X1060666Y1398562D01*
X1058891Y1399925D01*
X1056823Y1400781D01*
X1054604Y1401073D01*
X1025051D01*
X907062Y1519062D01*
X905287Y1520425D01*
X904681Y1520676D01*
X903219Y1521281D01*
X901000Y1521573D01*
X876000D01*
X875443Y1521500D01*
X861000D01*
Y1530000D01*
X875443D01*
X876000Y1529927D01*
X901949D01*
X929938Y1501938D01*
X931713Y1500575D01*
X933781Y1499719D01*
X936000Y1499427D01*
X1104000D01*
X1106219Y1499719D01*
X1107681Y1500325D01*
X1108287Y1500575D01*
X1110062Y1501938D01*
X1236551Y1628427D01*
X1317449D01*
X1328427Y1617449D01*
Y1574000D01*
X1318000D01*
Y1559000D01*
X1356000D01*
Y1574000D01*
X1345573D01*
Y1621000D01*
X1345281Y1623219D01*
X1344425Y1625287D01*
X1343062Y1627062D01*
X1327062Y1643062D01*
X1325287Y1644425D01*
X1323219Y1645281D01*
X1321000Y1645573D01*
X1233000D01*
X1230781Y1645281D01*
X1229747Y1644853D01*
X1228713Y1644425D01*
X1226938Y1643062D01*
X1100449Y1516573D01*
X939551D01*
X912562Y1543562D01*
X911997Y1543996D01*
X911562Y1544562D01*
X909787Y1545925D01*
X907719Y1546781D01*
X905500Y1547073D01*
X876000D01*
X875443Y1547000D01*
X861000D01*
Y1555500D01*
X875443D01*
X876000Y1555427D01*
X904449D01*
X935938Y1523938D01*
X937713Y1522575D01*
X939781Y1521719D01*
X942000Y1521427D01*
X1022000D01*
X1024219Y1521719D01*
X1026287Y1522575D01*
X1028062Y1523938D01*
X1043062Y1538938D01*
X1044425Y1540713D01*
X1045281Y1542781D01*
X1045573Y1545000D01*
Y1626000D01*
X1056000D01*
Y1641000D01*
X1018000D01*
Y1626000D01*
X1028427D01*
Y1548551D01*
X1018449Y1538573D01*
X945551D01*
X915062Y1569062D01*
X914497Y1569496D01*
X914062Y1570062D01*
X912287Y1571425D01*
X910219Y1572281D01*
X908000Y1572573D01*
X876000D01*
X875443Y1572500D01*
X861000D01*
Y1699000D01*
X875443D01*
X876000Y1698927D01*
D02*
G37*
%LPC*%
G36*
X1251000Y1368573D02*
X1248781Y1368281D01*
X1246713Y1367425D01*
X1244938Y1366062D01*
X1243575Y1364287D01*
X1242719Y1362219D01*
X1242427Y1360000D01*
Y1358573D01*
X1154850D01*
Y1364200D01*
X1142650D01*
Y1335800D01*
X1154850D01*
Y1341427D01*
X1242427D01*
Y1340000D01*
X1242719Y1337781D01*
X1243575Y1335713D01*
X1244938Y1333938D01*
X1246713Y1332575D01*
X1248781Y1331719D01*
X1251000Y1331427D01*
X1253219Y1331719D01*
X1255287Y1332575D01*
X1257062Y1333938D01*
X1258425Y1335713D01*
X1259281Y1337781D01*
X1259573Y1340000D01*
Y1350000D01*
Y1360000D01*
X1259281Y1362219D01*
X1258425Y1364287D01*
X1257062Y1366062D01*
X1255287Y1367425D01*
X1253219Y1368281D01*
X1251000Y1368573D01*
D02*
G37*
G36*
X1154500Y1223500D02*
X1140500D01*
Y1208500D01*
X1140500D01*
Y1208398D01*
X1139602Y1207500D01*
X1139500D01*
D01*
X1138500Y1207500D01*
D01*
X1137500Y1207500D01*
Y1208500D01*
X1137500D01*
Y1223500D01*
X1123500D01*
Y1215210D01*
X1122000Y1213710D01*
X1121854Y1213681D01*
X1120035Y1212465D01*
X1118819Y1210646D01*
X1118392Y1208500D01*
X1118819Y1206354D01*
X1120035Y1204535D01*
X1121854Y1203319D01*
X1122000Y1203290D01*
X1123500Y1201790D01*
Y1198310D01*
X1122518Y1197505D01*
X1122000Y1197608D01*
X1119854Y1197181D01*
X1118035Y1195965D01*
X1116819Y1194146D01*
X1116392Y1192000D01*
X1116819Y1189854D01*
X1118035Y1188035D01*
X1119854Y1186819D01*
X1120000Y1186790D01*
X1123500Y1183290D01*
Y1176500D01*
X1138500D01*
Y1176500D01*
X1138500D01*
X1138500Y1176500D01*
X1139500Y1176500D01*
Y1176500D01*
X1154500D01*
Y1176500D01*
X1155724Y1176500D01*
X1156035Y1176035D01*
X1157500Y1175056D01*
Y1175000D01*
X1157583D01*
X1157854Y1174819D01*
X1160000Y1174392D01*
X1162146Y1174819D01*
X1162417Y1175000D01*
X1177500D01*
Y1184500D01*
X1196500D01*
Y1195500D01*
X1177500D01*
Y1205000D01*
X1157500D01*
Y1204598D01*
X1154500D01*
Y1207500D01*
D01*
Y1207500D01*
X1154500Y1207500D01*
Y1208500D01*
X1154500D01*
Y1223500D01*
D02*
G37*
G36*
X1356000Y1541000D02*
X1318000D01*
Y1526000D01*
X1328427D01*
Y1423551D01*
X1288438Y1383562D01*
X1287075Y1381787D01*
X1286219Y1379719D01*
X1285927Y1377500D01*
Y1322500D01*
X1286219Y1320281D01*
X1287075Y1318213D01*
X1288438Y1316438D01*
X1328427Y1276449D01*
Y1174000D01*
X1318000D01*
Y1159000D01*
X1356000D01*
Y1174000D01*
X1345573D01*
Y1280000D01*
X1345281Y1282219D01*
X1344425Y1284287D01*
X1343062Y1286062D01*
X1303073Y1326051D01*
Y1373949D01*
X1343062Y1413938D01*
X1344425Y1415713D01*
X1344676Y1416319D01*
X1345281Y1417781D01*
X1345573Y1420000D01*
Y1526000D01*
X1356000D01*
Y1541000D01*
D02*
G37*
%LPD*%
D10*
X1130000Y1184000D02*
X1131000D01*
X1122000Y1192000D02*
X1130000Y1184000D01*
X1124000Y1208500D02*
X1124000D01*
X1131000Y1201500D01*
X1124000Y1208500D02*
X1131000Y1215500D01*
Y1201500D02*
Y1215500D01*
X1147000Y1184000D02*
X1150192D01*
X1186500Y1190000D02*
X1186500Y1190000D01*
X1131000Y1200000D02*
Y1201500D01*
X1147500Y1199500D02*
Y1216000D01*
X897000Y1010000D02*
Y1125000D01*
X876000Y1162000D02*
X894000D01*
X888000Y1213000D02*
X897000Y1204000D01*
X1150192Y1184000D02*
X1156192Y1190000D01*
X1131000Y1184000D02*
X1147000D01*
X885500Y1136500D02*
X897000Y1125000D01*
X1672000Y905000D02*
X1709500Y942500D01*
X982000Y925000D02*
X1235500D01*
X1156192Y1190000D02*
X1186500D01*
X1317000Y990000D02*
X1357000D01*
X1310500Y1000000D02*
X1359728D01*
X1147500Y1199500D02*
X1167500D01*
X1359728Y1000000D02*
X1435728Y924000D01*
X1357000Y990000D02*
X1432000Y915000D01*
X1626000Y924000D02*
X1697000Y995000D01*
X963000Y915000D02*
X1242000D01*
X1317000Y990000D01*
X1235500Y925000D02*
X1310500Y1000000D01*
X897000Y1010000D02*
X982000Y925000D01*
X941000Y905000D02*
X1672000D01*
X1435728Y924000D02*
X1626000D01*
X1432000Y915000D02*
X1637000D01*
X1709000Y1137000D02*
X1735000D01*
X1697000Y995000D02*
Y1152000D01*
X1707500Y1162500D01*
X1735000D01*
X1711500Y1213500D02*
X1735000D01*
X1710000Y968000D02*
X1735000D01*
X1637000Y915000D02*
X1715500Y993500D01*
X1735000D01*
X1709500Y942500D02*
X1735000D01*
X909500Y968500D02*
X963000Y915000D01*
X876000Y968500D02*
X909500D01*
X877000Y942000D02*
X900000D01*
X928500Y917500D02*
X941000Y905000D01*
X876000Y917500D02*
X928500D01*
X877000Y993000D02*
X897000D01*
D11*
X979000Y969500D02*
Y1066690D01*
X893500Y1187500D02*
X915500D01*
X876000D02*
X893500D01*
X1685500Y1158500D02*
X1715000Y1188000D01*
X931000Y1114690D02*
X979000Y1066690D01*
X931000Y1114690D02*
Y1172000D01*
X1685500Y999763D02*
Y1158500D01*
X915500Y1187500D02*
X931000Y1172000D01*
X979000Y969500D02*
X1012000Y936500D01*
X1230737D01*
X1305737Y1011500D02*
X1364491D01*
X1440491Y935500D01*
X1621237D02*
X1685500Y999763D01*
X1230737Y936500D02*
X1305737Y1011500D01*
X1440491Y935500D02*
X1621237D01*
X905500Y1538500D02*
X906500Y1537500D01*
X908000Y1564000D02*
X909000Y1563000D01*
X1715000Y1188000D02*
X1735000D01*
D12*
X1251000Y1340000D02*
Y1350000D01*
Y1360000D01*
X1637000Y1669000D02*
Y1685000D01*
X1630000Y1692000D02*
X1637000Y1685000D01*
Y1069000D02*
Y1235000D01*
Y1552000D02*
Y1631000D01*
X1411000Y1097000D02*
Y1423000D01*
X1637000Y973000D02*
Y1032000D01*
X1021500Y1392500D02*
X1054604D01*
X1097104Y1350000D02*
X1122400D01*
X1037000Y966000D02*
X1050000Y953000D01*
X1022000Y1530000D02*
X1037000Y1545000D01*
Y1669000D02*
Y1683976D01*
X1044024Y1691000D01*
X1294500Y1322500D02*
Y1377500D01*
X1269000Y1691000D02*
X1299000Y1661000D01*
X1360000Y1073000D02*
X1387000D01*
X1337000Y1096000D02*
X1360000Y1073000D01*
X1337000Y1096000D02*
Y1131000D01*
X1337000Y1569000D02*
Y1621000D01*
X1426000Y1340000D02*
Y1350000D01*
Y1360000D01*
X1616000Y952000D02*
X1637000Y973000D01*
X1645000Y1418104D02*
Y1451000D01*
X1037000Y1069000D02*
Y1161000D01*
Y1545000D02*
Y1631000D01*
X1271517Y1757500D02*
X1320017Y1709000D01*
X1337000Y1170000D02*
Y1280000D01*
Y1420000D02*
Y1531000D01*
X1637000Y1552000D02*
X1648000Y1541000D01*
X937000Y1261000D02*
Y1449000D01*
X1037000Y966000D02*
Y1030000D01*
X1151600Y1350000D02*
X1251000D01*
X1551600D02*
X1576896D01*
X1426000D02*
X1522000D01*
X1306000Y1677000D02*
X1368000D01*
X1313000Y1693000D02*
X1361000D01*
X906500Y1537500D02*
X936000Y1508000D01*
X1050000Y953000D02*
X1199000D01*
X1044024Y1691000D02*
X1269000D01*
X1387000Y1073000D02*
X1411000Y1097000D01*
X1320017Y1709000D02*
X1353983D01*
X1299000Y1661000D02*
X1375000D01*
X1406000Y1692000D01*
X1320017Y1791000D02*
X1353983D01*
X1648000Y1541000D02*
X1682000D01*
X909000Y1563000D02*
X942000Y1530000D01*
X1104000Y1508000D02*
X1233000Y1637000D01*
X1294500Y1322500D02*
X1337000Y1280000D01*
X1411000Y1423000D02*
X1497000Y1509000D01*
X1321000Y1637000D02*
X1337000Y1621000D01*
X1294500Y1377500D02*
X1337000Y1420000D01*
X1637000Y1235000D02*
X1696000Y1294000D01*
X1054604Y1392500D02*
X1097104Y1350000D01*
X1385000Y1041000D02*
X1474000Y952000D01*
X942000Y1530000D02*
X1022000D01*
X1233000Y1637000D02*
X1321000D01*
X1287000Y1041000D02*
X1385000D01*
X936000Y1508000D02*
X1104000D01*
X1474000Y952000D02*
X1616000D01*
X1497000Y1509000D02*
X1677000D01*
X937000Y1261000D02*
X1037000Y1161000D01*
X1199000Y953000D02*
X1287000Y1041000D01*
X1576896Y1350000D02*
X1645000Y1418104D01*
X1406000Y1692000D02*
X1630000D01*
X1313017Y1784000D02*
X1320017Y1791000D01*
X876000Y1784000D02*
X1313017D01*
X876000Y1758500D02*
X1270517D01*
X1273000Y1733000D02*
X1313000Y1693000D01*
X876000Y1733000D02*
X1273000D01*
X876000Y1707500D02*
X1275500D01*
X1306000Y1677000D01*
X1696000Y1294000D02*
Y1477000D01*
X876000Y1487500D02*
X898500D01*
X937000Y1449000D01*
X876000Y1513000D02*
X901000D01*
X1021500Y1392500D01*
X876000Y1538500D02*
X905500D01*
X876000Y1564000D02*
X908000D01*
X1398000Y1707000D02*
X1735000D01*
X1368000Y1677000D02*
X1398000Y1707000D01*
X1400500Y1732500D02*
X1735000D01*
X1361000Y1693000D02*
X1400500Y1732500D01*
X1353983Y1709000D02*
X1402983Y1758000D01*
X1735000D01*
X1361483Y1783500D02*
X1735000D01*
X1353983Y1791000D02*
X1361483Y1783500D01*
X1706500Y1512500D02*
X1735000D01*
X1645000Y1451000D02*
X1706500Y1512500D01*
X1704500Y1563500D02*
X1735000D01*
X1682000Y1541000D02*
X1704500Y1563500D01*
X1677000Y1509000D02*
X1706000Y1538000D01*
X1735000D01*
X1696000Y1477000D02*
X1706000Y1487000D01*
X1735000D01*
D13*
X1037000Y1350000D02*
D03*
X1337000D02*
D03*
X1637000D02*
D03*
X1737000Y1650000D02*
D03*
X1337000Y1750000D02*
D03*
X937000Y1650000D02*
D03*
Y1050000D02*
D03*
X1337000Y950000D02*
D03*
X1737000Y1050000D02*
D03*
D14*
X900000Y942000D02*
D03*
X1710000Y968000D02*
D03*
X1709000Y1137000D02*
D03*
X897000Y993000D02*
D03*
X894000Y1162000D02*
D03*
X1160000Y1180000D02*
D03*
X893500Y1187500D02*
D03*
X897000Y1204000D02*
D03*
X1124000Y1208500D02*
D03*
X1711500Y1213500D02*
D03*
X1022000Y1655000D02*
D03*
X1032000D02*
D03*
X1042000D02*
D03*
X1052000D02*
D03*
Y1645000D02*
D03*
X1042000D02*
D03*
X1032000D02*
D03*
X1022000D02*
D03*
X1012000D02*
D03*
Y1655000D02*
D03*
X1062000D02*
D03*
Y1645000D02*
D03*
Y1635000D02*
D03*
X1012000D02*
D03*
Y1665000D02*
D03*
X1622000Y1655000D02*
D03*
X1632000D02*
D03*
X1642000D02*
D03*
X1652000D02*
D03*
X1662000D02*
D03*
Y1665000D02*
D03*
Y1645000D02*
D03*
Y1635000D02*
D03*
X1652000Y1645000D02*
D03*
X1642000D02*
D03*
X1632000D02*
D03*
X1622000D02*
D03*
X1612000D02*
D03*
Y1655000D02*
D03*
Y1635000D02*
D03*
X1352000Y1155000D02*
D03*
X1342000D02*
D03*
X1332000D02*
D03*
X1322000D02*
D03*
X1312000D02*
D03*
Y1165000D02*
D03*
Y1145000D02*
D03*
Y1135000D02*
D03*
X1322000Y1145000D02*
D03*
X1332000D02*
D03*
X1342000D02*
D03*
X1352000D02*
D03*
X1362000D02*
D03*
Y1155000D02*
D03*
Y1165000D02*
D03*
X1022000Y1055000D02*
D03*
X1032000D02*
D03*
X1042000D02*
D03*
X1052000D02*
D03*
X1062000D02*
D03*
Y1065000D02*
D03*
Y1045000D02*
D03*
X1052000D02*
D03*
X1042000D02*
D03*
X1032000D02*
D03*
X1022000D02*
D03*
X1012000D02*
D03*
Y1035000D02*
D03*
Y1055000D02*
D03*
Y1065000D02*
D03*
X1622000Y1055000D02*
D03*
X1632000D02*
D03*
X1642000D02*
D03*
X1652000D02*
D03*
X1662000D02*
D03*
Y1065000D02*
D03*
Y1045000D02*
D03*
Y1035000D02*
D03*
X1652000Y1045000D02*
D03*
X1642000D02*
D03*
X1632000D02*
D03*
X1622000D02*
D03*
X1612000D02*
D03*
Y1055000D02*
D03*
Y1065000D02*
D03*
X1137000Y1350000D02*
D03*
Y1360000D02*
D03*
Y1340000D02*
D03*
Y1330000D02*
D03*
X1127000D02*
D03*
X1147000D02*
D03*
Y1370000D02*
D03*
X1137000D02*
D03*
X1127000D02*
D03*
X1157000D02*
D03*
Y1330000D02*
D03*
X1117000D02*
D03*
Y1370000D02*
D03*
X1537000Y1350000D02*
D03*
Y1360000D02*
D03*
Y1370000D02*
D03*
X1527000D02*
D03*
X1517000D02*
D03*
Y1330000D02*
D03*
X1527000D02*
D03*
X1537000D02*
D03*
Y1340000D02*
D03*
X1547000Y1330000D02*
D03*
X1557000D02*
D03*
X1547000Y1370000D02*
D03*
X1557000D02*
D03*
X1002000Y1655000D02*
D03*
Y1645000D02*
D03*
X1072000Y1655000D02*
D03*
Y1645000D02*
D03*
X1602000Y1655000D02*
D03*
Y1645000D02*
D03*
X1672000D02*
D03*
Y1655000D02*
D03*
X1602000Y1045000D02*
D03*
Y1055000D02*
D03*
X1672000D02*
D03*
Y1045000D02*
D03*
X1302000Y1145000D02*
D03*
Y1155000D02*
D03*
X1372000D02*
D03*
Y1145000D02*
D03*
X1612000Y1035000D02*
D03*
X1062000D02*
D03*
X1002000Y1045000D02*
D03*
Y1055000D02*
D03*
X1072000D02*
D03*
Y1045000D02*
D03*
X1362000Y1135000D02*
D03*
X1612000Y1665000D02*
D03*
X1062000D02*
D03*
X1137000Y1380000D02*
D03*
X1147000D02*
D03*
X1127000D02*
D03*
Y1320000D02*
D03*
X1137000D02*
D03*
X1147000D02*
D03*
X1537000Y1380000D02*
D03*
X1527000D02*
D03*
X1547000D02*
D03*
Y1320000D02*
D03*
X1537000D02*
D03*
X1527000D02*
D03*
X1322000Y1555000D02*
D03*
X1332000D02*
D03*
X1342000D02*
D03*
X1352000D02*
D03*
Y1545000D02*
D03*
X1342000D02*
D03*
X1332000D02*
D03*
X1322000D02*
D03*
X1312000D02*
D03*
X1302000D02*
D03*
Y1555000D02*
D03*
X1312000D02*
D03*
Y1565000D02*
D03*
Y1535000D02*
D03*
X1362000D02*
D03*
Y1545000D02*
D03*
Y1555000D02*
D03*
Y1565000D02*
D03*
X1372000Y1555000D02*
D03*
Y1545000D02*
D03*
X1426000Y1350000D02*
D03*
X1251000D02*
D03*
X1426000Y1360000D02*
D03*
Y1340000D02*
D03*
X1251000D02*
D03*
Y1360000D02*
D03*
X1122000Y1192000D02*
D03*
D15*
X1735000Y917000D02*
D03*
Y942500D02*
D03*
Y968000D02*
D03*
Y993500D02*
D03*
Y1137000D02*
D03*
Y1162500D02*
D03*
Y1188000D02*
D03*
Y1213500D02*
D03*
Y1487000D02*
D03*
Y1512500D02*
D03*
Y1538000D02*
D03*
Y1563500D02*
D03*
Y1707000D02*
D03*
Y1732500D02*
D03*
Y1758000D02*
D03*
Y1783500D02*
D03*
X876000Y1707500D02*
D03*
Y1733000D02*
D03*
Y1758500D02*
D03*
Y1784000D02*
D03*
Y1564000D02*
D03*
Y1538500D02*
D03*
Y1513000D02*
D03*
Y1487500D02*
D03*
Y1214000D02*
D03*
Y1188500D02*
D03*
Y1163000D02*
D03*
Y1137500D02*
D03*
Y917500D02*
D03*
Y943000D02*
D03*
Y968500D02*
D03*
Y994000D02*
D03*
D16*
X1037000Y1633500D02*
D03*
Y1666500D02*
D03*
X1337000Y1166500D02*
D03*
Y1133500D02*
D03*
Y1566500D02*
D03*
Y1533500D02*
D03*
X1637000Y1066500D02*
D03*
Y1033500D02*
D03*
X1037000Y1033500D02*
D03*
Y1066500D02*
D03*
X1637000Y1633500D02*
D03*
Y1666500D02*
D03*
D17*
X1037000Y1650000D02*
D03*
X1337000Y1150000D02*
D03*
Y1550000D02*
D03*
X1637000Y1050000D02*
D03*
X1037000D02*
D03*
X1637000Y1650000D02*
D03*
D18*
X1537000Y1350000D02*
D03*
X1137000D02*
D03*
D19*
X1548750D02*
D03*
X1525250D02*
D03*
X1148750D02*
D03*
X1125250D02*
D03*
D20*
X1131000Y1184000D02*
D03*
Y1200000D02*
D03*
X1147000Y1184000D02*
D03*
Y1200000D02*
D03*
D21*
X1130500Y1216000D02*
D03*
X1147500D02*
D03*
D22*
X1167500Y1199500D02*
D03*
Y1180500D02*
D03*
X1186500Y1190000D02*
D03*
M02*
