M48
;Layer_Color=9474304
;FILE_FORMAT=2:5
INCH,TZ
;TYPE=PLATED
T1F00S00C0.01181
T2F00S00C0.15748
%
T01
X354331Y370866
X353150Y390945
X398425Y407480
Y411417
X402362
Y415354
X398425
Y419291
X394488Y415354
Y411417
X406299
Y415354
X410236
X414173
X418110
X422047
Y411417
X418110
X414173
X410236
X418110Y407480
Y419291
X456693Y464567
X351772Y467520
X351969Y457480
X512598Y454724
X516535
X520472
X524409
X528346
X532283
Y450787
X528346
X524409
X520472
X516535
Y446850
X512598Y450787
X516535Y458661
X536221
Y454724
Y450787
X540158
Y454724
X536221Y446850
X634646Y419291
Y415354
X638583
X642520
X646457
X650394
X654331
Y419291
Y411417
Y407480
X650394Y411417
X646457
X642520
X638583
X634646
X630709
Y415354
X634646Y407480
X658268Y411417
Y415354
X672835Y447638
X673228Y381102
X673819Y477756
X612992Y523622
X609055
X605118
X601181
X597244
X601181Y519685
X605118
X609055
X605118Y527559
Y531496
Y535433
Y539370
X601181
X597244
X601181Y543307
X605118
X609055
Y539370
X612992
X561417Y535433
Y531496
Y527559
X492520
Y531496
Y535433
X512598Y608268
Y612205
X516535
Y608268
X520472
Y612205
X524409
Y608268
X528346
Y612205
X532283
Y608268
X536221
Y612205
Y616142
X540158Y612205
Y608268
X536221Y604331
X516535
Y616142
X455512Y539370
X451575
X447638
X443701
X439764
X443701Y543307
X447638
X451575
X447638Y535433
Y531496
Y527559
Y523622
X443701
X439764
X443701Y519685
X447638
X451575
Y523622
X455512
X442520Y475787
X441732Y469291
X353150Y474016
X398425Y643701
Y647638
X402362
Y651575
X398425
Y655512
X394488Y651575
Y647638
X406299
Y651575
X410236
Y647638
X414173
Y651575
X418110
Y647638
X422047
Y651575
X418110Y655512
Y643701
X634646
Y647638
Y651575
X638583
X642520
Y647638
X638583
X646457
Y651575
X650394
Y647638
X654331
Y651575
Y655512
X658268Y651575
Y647638
X654331Y643701
X630709Y647638
Y651575
X634646Y655512
T02
X368898Y413386
X526378Y374016
X683858Y413386
X644488Y531496
X526378
X408268
X368898Y649606
X526378Y688976
X683858Y649606
M30
