%FSLAX44Y44*%
%MOMM*%
G71*
G01*
G75*
G04 Layer_Physical_Order=1*
G04 Layer_Color=255*
%ADD10C,0.5000*%
%ADD11C,1.0000*%
%ADD12C,1.2000*%
%ADD13C,6.5000*%
%ADD14C,0.6000*%
G36*
X1428395Y911395D02*
X1428518Y911313D01*
X1428149Y910098D01*
X1245851D01*
X1245482Y911313D01*
X1245605Y911395D01*
X1245605Y911395D01*
X1245605Y911395D01*
X1319112Y984902D01*
X1354888D01*
X1428395Y911395D01*
D02*
G37*
G36*
X1749895Y900895D02*
X1651764D01*
X1651278Y902068D01*
X1712000Y962790D01*
X1712146Y962819D01*
X1713965Y964035D01*
X1715181Y965854D01*
X1715608Y968000D01*
X1715181Y970146D01*
X1713965Y971965D01*
X1712146Y973181D01*
X1710000Y973608D01*
X1707854Y973181D01*
X1706035Y971965D01*
X1704819Y970146D01*
X1704790Y970000D01*
X1644888Y910098D01*
X1640851D01*
X1640482Y911313D01*
X1640605Y911395D01*
X1640605Y911395D01*
X1640605Y911395D01*
X1700605Y971395D01*
X1701710Y973049D01*
X1701774Y973373D01*
X1702098Y975000D01*
Y1122888D01*
X1711000Y1131790D01*
X1711146Y1131819D01*
X1712965Y1133035D01*
X1714181Y1134854D01*
X1714608Y1137000D01*
X1714181Y1139146D01*
X1712965Y1140965D01*
X1711146Y1142181D01*
X1709000Y1142608D01*
X1706854Y1142181D01*
X1705035Y1140965D01*
X1703819Y1139146D01*
X1703790Y1139000D01*
X1694271Y1129481D01*
X1693098Y1129967D01*
Y1187888D01*
X1713500Y1208290D01*
X1713646Y1208319D01*
X1715465Y1209535D01*
X1716681Y1211354D01*
X1717108Y1213500D01*
X1716681Y1215646D01*
X1715465Y1217465D01*
X1713646Y1218681D01*
X1711500Y1219108D01*
X1709354Y1218681D01*
X1707535Y1217465D01*
X1706319Y1215646D01*
X1706290Y1215500D01*
X1684395Y1193605D01*
X1683290Y1191951D01*
X1682902Y1190000D01*
Y978112D01*
X1633888Y929098D01*
X1438112D01*
X1363605Y1003605D01*
X1361951Y1004710D01*
X1360000Y1005098D01*
X1311000D01*
X1309049Y1004710D01*
X1307395Y1003605D01*
X1233888Y930098D01*
X956112D01*
X934098Y952112D01*
Y973000D01*
X933710Y974951D01*
X932605Y976605D01*
X875598Y1033612D01*
Y1151074D01*
X876771Y1151560D01*
X883680Y1144651D01*
X883680Y1144651D01*
X885247Y1143449D01*
D01*
D01*
Y1143449D01*
X885247Y1143449D01*
D01*
D01*
X885247D01*
Y1143449D01*
D01*
X885247D01*
Y1143449D01*
X887072Y1142693D01*
X889029Y1142435D01*
X889030Y1142435D01*
X898971D01*
X900928Y1142693D01*
X902219Y1143227D01*
X902753Y1143449D01*
X904320Y1144651D01*
X920104Y1160435D01*
X1164971D01*
X1166928Y1160693D01*
X1168219Y1161227D01*
X1168753Y1161449D01*
X1170320Y1162651D01*
X1177349Y1169680D01*
X1177349Y1169680D01*
X1178551Y1171247D01*
X1179307Y1173072D01*
X1179307Y1173072D01*
X1179307Y1173072D01*
X1179565Y1175030D01*
X1179565Y1175030D01*
Y1184970D01*
X1179565Y1184971D01*
X1179307Y1186928D01*
X1178551Y1188753D01*
X1177349Y1190320D01*
X1177349Y1190320D01*
X1170320Y1197349D01*
X1168753Y1198551D01*
X1168219Y1198773D01*
X1166928Y1199307D01*
X1164971Y1199565D01*
X1123934D01*
X1123448Y1200738D01*
X1126000Y1203290D01*
X1126146Y1203319D01*
X1127965Y1204535D01*
X1129181Y1206354D01*
X1129608Y1208500D01*
X1129181Y1210646D01*
X1127965Y1212465D01*
X1126146Y1213681D01*
X1124000Y1214108D01*
X1121854Y1213681D01*
X1120035Y1212465D01*
X1118819Y1210646D01*
X1118790Y1210500D01*
X1116888Y1208598D01*
X900018D01*
X899146Y1209181D01*
X897000Y1209608D01*
X894854Y1209181D01*
X893982Y1208598D01*
X893236D01*
X891286Y1208210D01*
X889632Y1207105D01*
X866895Y1184368D01*
X865790Y1182714D01*
X865402Y1180763D01*
Y1031500D01*
X865402Y1031500D01*
X865402D01*
X865790Y1029549D01*
X866895Y1027895D01*
X895366Y999425D01*
X894997Y998209D01*
X894854Y998181D01*
X893035Y996965D01*
X891819Y995146D01*
X891392Y993000D01*
X891819Y990854D01*
X893035Y989035D01*
X894854Y987819D01*
X895000Y987790D01*
X912902Y969888D01*
Y949000D01*
X912902Y949000D01*
X912902D01*
X913085Y948080D01*
X912279Y947098D01*
X902270D01*
X902146Y947181D01*
X900000Y947608D01*
X897854Y947181D01*
X896035Y945965D01*
X894819Y944146D01*
X894392Y942000D01*
X894819Y939854D01*
X896035Y938035D01*
X897854Y936819D01*
X900000Y936392D01*
X902146Y936819D01*
X902270Y936902D01*
X910888D01*
X945722Y902068D01*
X945236Y900895D01*
X860895D01*
Y1800895D01*
X1749895D01*
Y900895D01*
D02*
G37*
G36*
X1172000Y1185000D02*
Y1184971D01*
Y1178000D01*
X1164971Y1170971D01*
Y1168000D01*
X916264D01*
X901000Y1152737D01*
Y1150000D01*
X889029D01*
X882000Y1157029D01*
Y1175000D01*
X898000Y1191000D01*
Y1192000D01*
X1161000D01*
X1163000Y1194000D01*
X1172000Y1185000D01*
D02*
G37*
%LPC*%
G36*
X1354604Y1401073D02*
X1319396D01*
X1317177Y1400781D01*
X1315715Y1400176D01*
X1315109Y1399925D01*
X1313334Y1398562D01*
X1273345Y1358573D01*
X1259573D01*
Y1360000D01*
X1259281Y1362219D01*
X1258425Y1364287D01*
X1257062Y1366062D01*
X1255287Y1367425D01*
X1253219Y1368281D01*
X1251000Y1368573D01*
X1248781Y1368281D01*
X1246713Y1367425D01*
X1244938Y1366062D01*
X1243575Y1364287D01*
X1242719Y1362219D01*
X1242427Y1360000D01*
Y1350000D01*
Y1340000D01*
X1242719Y1337781D01*
X1243575Y1335713D01*
X1244938Y1333938D01*
X1246713Y1332575D01*
X1248781Y1331719D01*
X1251000Y1331427D01*
X1253219Y1331719D01*
X1255287Y1332575D01*
X1257062Y1333938D01*
X1258425Y1335713D01*
X1259281Y1337781D01*
X1259573Y1340000D01*
Y1341427D01*
X1276896D01*
X1279115Y1341719D01*
X1281183Y1342575D01*
X1282958Y1343938D01*
X1282958Y1343938D01*
X1282958Y1343938D01*
X1322947Y1383927D01*
X1351053D01*
X1391042Y1343938D01*
X1392817Y1342575D01*
X1394885Y1341719D01*
X1397104Y1341427D01*
X1417427D01*
Y1340000D01*
X1417719Y1337781D01*
X1418575Y1335713D01*
X1419938Y1333938D01*
X1421713Y1332575D01*
X1423781Y1331719D01*
X1426000Y1331427D01*
X1428219Y1331719D01*
X1430287Y1332575D01*
X1432062Y1333938D01*
X1433425Y1335713D01*
X1434281Y1337781D01*
X1434573Y1340000D01*
Y1350000D01*
Y1360000D01*
X1434281Y1362219D01*
X1433425Y1364287D01*
X1432062Y1366062D01*
X1430287Y1367425D01*
X1428219Y1368281D01*
X1426000Y1368573D01*
X1423781Y1368281D01*
X1421713Y1367425D01*
X1419938Y1366062D01*
X1418575Y1364287D01*
X1417719Y1362219D01*
X1417427Y1360000D01*
Y1358573D01*
X1400655D01*
X1360666Y1398562D01*
X1358891Y1399925D01*
X1358285Y1400176D01*
X1356823Y1400781D01*
X1354604Y1401073D01*
D02*
G37*
G36*
X1160000Y1184613D02*
X1158235Y1184261D01*
X1157997Y1184103D01*
X912000D01*
X910430Y1183791D01*
X909099Y1182901D01*
X892515Y1166317D01*
X892235Y1166262D01*
X890738Y1165262D01*
X889738Y1163765D01*
X889387Y1162000D01*
X889738Y1160235D01*
X890738Y1158738D01*
X892235Y1157738D01*
X894000Y1157387D01*
X895765Y1157738D01*
X897262Y1158738D01*
X898262Y1160235D01*
X898317Y1160515D01*
X913699Y1175897D01*
X1157997D01*
X1158235Y1175739D01*
X1160000Y1175387D01*
X1161765Y1175739D01*
X1163262Y1176738D01*
X1164261Y1178235D01*
X1164613Y1180000D01*
X1164261Y1181765D01*
X1163262Y1183262D01*
X1161765Y1184261D01*
X1160000Y1184613D01*
D02*
G37*
%LPD*%
D10*
X897000Y1204000D02*
X897500Y1203500D01*
X896500D02*
X897000Y1204000D01*
X1119000Y1203500D02*
X1124000Y1208500D01*
X929000Y950000D02*
Y973000D01*
X918000Y949000D02*
Y972000D01*
X1697000Y975000D02*
Y1125000D01*
X1688000Y976000D02*
Y1190000D01*
X900000Y942000D02*
X913000D01*
X893236Y1203500D02*
X896500D01*
X894000Y1162000D02*
X912000Y1180000D01*
X870500Y1180763D02*
X893236Y1203500D01*
X929000Y950000D02*
X954000Y925000D01*
X1697000Y1125000D02*
X1709000Y1137000D01*
X1688000Y1190000D02*
X1711500Y1213500D01*
X897000Y993000D02*
X918000Y972000D01*
X870500Y1031500D02*
Y1180763D01*
X1317000Y990000D02*
X1357000D01*
X1311000Y1000000D02*
X1360000D01*
X918000Y949000D02*
X952000Y915000D01*
X1637000D02*
X1697000Y975000D01*
X1636000Y924000D02*
X1688000Y976000D01*
X913000Y942000D02*
X950000Y905000D01*
X1357000Y990000D02*
X1432000Y915000D01*
X1360000Y1000000D02*
X1436000Y924000D01*
X1647000Y905000D02*
X1710000Y968000D01*
X870500Y1031500D02*
X929000Y973000D01*
X954000Y925000D02*
X1236000D01*
X897500Y1203500D02*
X1119000D01*
X952000Y915000D02*
X1242000D01*
X912000Y1180000D02*
X1160000D01*
X1242000Y915000D02*
X1317000Y990000D01*
X1236000Y925000D02*
X1311000Y1000000D01*
X950000Y905000D02*
X1647000D01*
X1436000Y924000D02*
X1636000D01*
X1432000Y915000D02*
X1637000D01*
D11*
X882000Y1157029D02*
Y1176000D01*
X889029Y1150000D02*
X898971D01*
X916264Y1167293D02*
Y1168000D01*
X893500Y1187500D02*
X898000Y1192000D01*
X893000Y1187000D02*
X894000D01*
X882000Y1176000D02*
X893000Y1187000D01*
X1172000Y1175030D02*
Y1184971D01*
X898971Y1150000D02*
X916264Y1167293D01*
X882000Y1157029D02*
X889029Y1150000D01*
X1164971Y1192000D02*
X1172000Y1184971D01*
X1122000Y1192000D02*
X1164971D01*
Y1168000D02*
X1172000Y1175030D01*
X916264Y1168000D02*
X1164971D01*
X898000Y1192000D02*
X1122000D01*
D12*
X1251000Y1340000D02*
Y1350000D01*
Y1360000D01*
X1426000Y1340000D02*
Y1350000D01*
Y1360000D01*
X1276896Y1350000D02*
X1319396Y1392500D01*
X1354604D02*
X1397104Y1350000D01*
X1251000D02*
X1276896D01*
X1397104D02*
X1426000D01*
X1319396Y1392500D02*
X1354604D01*
D13*
X1037000Y1350000D02*
D03*
X1337000D02*
D03*
X1637000D02*
D03*
X1737000Y1650000D02*
D03*
X1337000Y1750000D02*
D03*
X937000Y1650000D02*
D03*
Y1050000D02*
D03*
X1337000Y950000D02*
D03*
X1737000Y1050000D02*
D03*
D14*
X900000Y942000D02*
D03*
X1710000Y968000D02*
D03*
X1709000Y1137000D02*
D03*
X897000Y993000D02*
D03*
X894000Y1162000D02*
D03*
X1160000Y1180000D02*
D03*
X893500Y1187500D02*
D03*
X897000Y1204000D02*
D03*
X1124000Y1208500D02*
D03*
X1711500Y1213500D02*
D03*
X1022000Y1655000D02*
D03*
X1032000D02*
D03*
X1042000D02*
D03*
X1052000D02*
D03*
Y1645000D02*
D03*
X1042000D02*
D03*
X1032000D02*
D03*
X1022000D02*
D03*
X1012000D02*
D03*
Y1655000D02*
D03*
X1062000D02*
D03*
Y1645000D02*
D03*
Y1635000D02*
D03*
X1012000D02*
D03*
Y1665000D02*
D03*
X1622000Y1655000D02*
D03*
X1632000D02*
D03*
X1642000D02*
D03*
X1652000D02*
D03*
X1662000D02*
D03*
Y1665000D02*
D03*
Y1645000D02*
D03*
Y1635000D02*
D03*
X1652000Y1645000D02*
D03*
X1642000D02*
D03*
X1632000D02*
D03*
X1622000D02*
D03*
X1612000D02*
D03*
Y1655000D02*
D03*
Y1635000D02*
D03*
X1352000Y1155000D02*
D03*
X1342000D02*
D03*
X1332000D02*
D03*
X1322000D02*
D03*
X1312000D02*
D03*
Y1165000D02*
D03*
Y1145000D02*
D03*
Y1135000D02*
D03*
X1322000Y1145000D02*
D03*
X1332000D02*
D03*
X1342000D02*
D03*
X1352000D02*
D03*
X1362000D02*
D03*
Y1155000D02*
D03*
Y1165000D02*
D03*
X1022000Y1055000D02*
D03*
X1032000D02*
D03*
X1042000D02*
D03*
X1052000D02*
D03*
X1062000D02*
D03*
Y1065000D02*
D03*
Y1045000D02*
D03*
X1052000D02*
D03*
X1042000D02*
D03*
X1032000D02*
D03*
X1022000D02*
D03*
X1012000D02*
D03*
Y1035000D02*
D03*
Y1055000D02*
D03*
Y1065000D02*
D03*
X1622000Y1055000D02*
D03*
X1632000D02*
D03*
X1642000D02*
D03*
X1652000D02*
D03*
X1662000D02*
D03*
Y1065000D02*
D03*
Y1045000D02*
D03*
Y1035000D02*
D03*
X1652000Y1045000D02*
D03*
X1642000D02*
D03*
X1632000D02*
D03*
X1622000D02*
D03*
X1612000D02*
D03*
Y1055000D02*
D03*
Y1065000D02*
D03*
X1137000Y1350000D02*
D03*
Y1360000D02*
D03*
Y1340000D02*
D03*
Y1330000D02*
D03*
X1127000D02*
D03*
X1147000D02*
D03*
Y1370000D02*
D03*
X1137000D02*
D03*
X1127000D02*
D03*
X1157000D02*
D03*
Y1330000D02*
D03*
X1117000D02*
D03*
Y1370000D02*
D03*
X1537000Y1350000D02*
D03*
Y1360000D02*
D03*
Y1370000D02*
D03*
X1527000D02*
D03*
X1517000D02*
D03*
Y1330000D02*
D03*
X1527000D02*
D03*
X1537000D02*
D03*
Y1340000D02*
D03*
X1547000Y1330000D02*
D03*
X1557000D02*
D03*
X1547000Y1370000D02*
D03*
X1557000D02*
D03*
X1002000Y1655000D02*
D03*
Y1645000D02*
D03*
X1072000Y1655000D02*
D03*
Y1645000D02*
D03*
X1602000Y1655000D02*
D03*
Y1645000D02*
D03*
X1672000D02*
D03*
Y1655000D02*
D03*
X1602000Y1045000D02*
D03*
Y1055000D02*
D03*
X1672000D02*
D03*
Y1045000D02*
D03*
X1302000Y1145000D02*
D03*
Y1155000D02*
D03*
X1372000D02*
D03*
Y1145000D02*
D03*
X1612000Y1035000D02*
D03*
X1062000D02*
D03*
X1002000Y1045000D02*
D03*
Y1055000D02*
D03*
X1072000D02*
D03*
Y1045000D02*
D03*
X1362000Y1135000D02*
D03*
X1612000Y1665000D02*
D03*
X1062000D02*
D03*
X1137000Y1380000D02*
D03*
X1147000D02*
D03*
X1127000D02*
D03*
Y1320000D02*
D03*
X1137000D02*
D03*
X1147000D02*
D03*
X1537000Y1380000D02*
D03*
X1527000D02*
D03*
X1547000D02*
D03*
Y1320000D02*
D03*
X1537000D02*
D03*
X1527000D02*
D03*
X1322000Y1555000D02*
D03*
X1332000D02*
D03*
X1342000D02*
D03*
X1352000D02*
D03*
Y1545000D02*
D03*
X1342000D02*
D03*
X1332000D02*
D03*
X1322000D02*
D03*
X1312000D02*
D03*
X1302000D02*
D03*
Y1555000D02*
D03*
X1312000D02*
D03*
Y1565000D02*
D03*
Y1535000D02*
D03*
X1362000D02*
D03*
Y1545000D02*
D03*
Y1555000D02*
D03*
Y1565000D02*
D03*
X1372000Y1555000D02*
D03*
Y1545000D02*
D03*
X1426000Y1350000D02*
D03*
X1251000D02*
D03*
X1426000Y1360000D02*
D03*
Y1340000D02*
D03*
X1251000D02*
D03*
Y1360000D02*
D03*
X1122000Y1192000D02*
D03*
M02*
