%FSLAX44Y44*%
%MOMM*%
G71*
G01*
G75*
G04 Layer_Color=16711935*
%ADD10C,0.5000*%
%ADD11C,1.0000*%
%ADD12C,1.2000*%
%ADD13C,6.5000*%
%ADD14C,0.6000*%
%ADD15R,3.0000X1.2000*%
%ADD16R,3.3000X1.0000*%
%ADD17R,3.3000X1.3000*%
%ADD18R,0.9200X2.3400*%
%ADD19R,0.7200X2.3400*%
%ADD20R,1.0000X1.0000*%
%ADD21R,0.9000X1.0000*%
%ADD22R,1.5000X0.6000*%
%ADD23C,0.2000*%
%ADD24C,0.1500*%
%ADD25C,0.1000*%
%ADD26C,6.6000*%
%ADD27C,0.7000*%
%ADD28R,3.1000X1.3000*%
%ADD29R,3.4000X1.1000*%
%ADD30R,3.4000X1.4000*%
%ADD31R,1.0200X2.4400*%
%ADD32R,0.8200X2.4400*%
%ADD33R,1.1000X1.1000*%
%ADD34R,1.0000X1.1000*%
%ADD35R,1.6000X0.7000*%
D26*
X1037000Y1350000D02*
D03*
X1337000D02*
D03*
X1637000D02*
D03*
X1737000Y1650000D02*
D03*
X1337000Y1750000D02*
D03*
X937000Y1650000D02*
D03*
Y1050000D02*
D03*
X1337000Y950000D02*
D03*
X1737000Y1050000D02*
D03*
D27*
X1022000Y1655000D02*
D03*
X1032000D02*
D03*
X1042000D02*
D03*
X1052000D02*
D03*
Y1645000D02*
D03*
X1042000D02*
D03*
X1032000D02*
D03*
X1022000D02*
D03*
X1622000Y1655000D02*
D03*
X1632000D02*
D03*
X1642000D02*
D03*
X1652000D02*
D03*
Y1645000D02*
D03*
X1642000D02*
D03*
X1632000D02*
D03*
X1622000D02*
D03*
X1352000Y1155000D02*
D03*
X1342000D02*
D03*
X1332000D02*
D03*
X1322000D02*
D03*
Y1145000D02*
D03*
X1332000D02*
D03*
X1342000D02*
D03*
X1352000D02*
D03*
X1022000Y1055000D02*
D03*
X1032000D02*
D03*
X1042000D02*
D03*
X1052000D02*
D03*
Y1045000D02*
D03*
X1042000D02*
D03*
X1032000D02*
D03*
X1022000D02*
D03*
X1622000Y1055000D02*
D03*
X1632000D02*
D03*
X1642000D02*
D03*
X1652000D02*
D03*
Y1045000D02*
D03*
X1642000D02*
D03*
X1632000D02*
D03*
X1622000D02*
D03*
X1137000Y1350000D02*
D03*
Y1360000D02*
D03*
Y1340000D02*
D03*
X1537000Y1350000D02*
D03*
Y1360000D02*
D03*
Y1340000D02*
D03*
X1322000Y1555000D02*
D03*
X1332000D02*
D03*
X1342000D02*
D03*
X1352000D02*
D03*
Y1545000D02*
D03*
X1342000D02*
D03*
X1332000D02*
D03*
X1322000D02*
D03*
D28*
X1735000Y917000D02*
D03*
Y942500D02*
D03*
Y968000D02*
D03*
Y993500D02*
D03*
Y1137000D02*
D03*
Y1162500D02*
D03*
Y1188000D02*
D03*
Y1213500D02*
D03*
Y1487000D02*
D03*
Y1512500D02*
D03*
Y1538000D02*
D03*
Y1563500D02*
D03*
Y1707000D02*
D03*
Y1732500D02*
D03*
Y1758000D02*
D03*
Y1783500D02*
D03*
X876000Y1707500D02*
D03*
Y1733000D02*
D03*
Y1758500D02*
D03*
Y1784000D02*
D03*
Y1564000D02*
D03*
Y1538500D02*
D03*
Y1513000D02*
D03*
Y1487500D02*
D03*
Y1214000D02*
D03*
Y1188500D02*
D03*
Y1163000D02*
D03*
Y1137500D02*
D03*
Y917500D02*
D03*
Y943000D02*
D03*
Y968500D02*
D03*
Y994000D02*
D03*
D29*
X1037000Y1633500D02*
D03*
Y1666500D02*
D03*
X1337000Y1166500D02*
D03*
Y1133500D02*
D03*
Y1566500D02*
D03*
Y1533500D02*
D03*
X1637000Y1066500D02*
D03*
Y1033500D02*
D03*
X1037000Y1033500D02*
D03*
Y1066500D02*
D03*
X1637000Y1633500D02*
D03*
Y1666500D02*
D03*
D30*
X1037000Y1650000D02*
D03*
X1337000Y1150000D02*
D03*
Y1550000D02*
D03*
X1637000Y1050000D02*
D03*
X1037000D02*
D03*
X1637000Y1650000D02*
D03*
D31*
X1537000Y1350000D02*
D03*
X1137000D02*
D03*
D32*
X1548750D02*
D03*
X1525250D02*
D03*
X1148750D02*
D03*
X1125250D02*
D03*
D33*
X1131000Y1184000D02*
D03*
Y1200000D02*
D03*
X1147000Y1184000D02*
D03*
Y1200000D02*
D03*
D34*
X1130500Y1216000D02*
D03*
X1147500D02*
D03*
D35*
X1167500Y1199500D02*
D03*
Y1180500D02*
D03*
X1186500Y1190000D02*
D03*
M02*
