%FSLAX44Y44*%
%MOMM*%
G71*
G01*
G75*
G04 Layer_Physical_Order=1*
G04 Layer_Color=255*
%ADD10R,3.0000X1.2000*%
%ADD11R,1.3000X0.8000*%
%ADD12R,1.0000X0.9000*%
%ADD13R,1.8000X1.3000*%
%ADD14R,1.0000X1.0000*%
%ADD15R,1.3000X1.5000*%
%ADD16R,1.5000X1.3000*%
%ADD17R,1.4000X1.2000*%
%ADD18R,1.6000X0.8000*%
%ADD19R,1.3000X3.4000*%
%ADD20R,0.9000X1.0000*%
%ADD21R,1.0000X1.0000*%
G04:AMPARAMS|DCode=22|XSize=1.4mm|YSize=2mm|CornerRadius=0.14mm|HoleSize=0mm|Usage=FLASHONLY|Rotation=0.000|XOffset=0mm|YOffset=0mm|HoleType=Round|Shape=RoundedRectangle|*
%AMROUNDEDRECTD22*
21,1,1.4000,1.7200,0,0,0.0*
21,1,1.1200,2.0000,0,0,0.0*
1,1,0.2800,0.5600,-0.8600*
1,1,0.2800,-0.5600,-0.8600*
1,1,0.2800,-0.5600,0.8600*
1,1,0.2800,0.5600,0.8600*
%
%ADD22ROUNDEDRECTD22*%
G04:AMPARAMS|DCode=23|XSize=1mm|YSize=2mm|CornerRadius=0.1mm|HoleSize=0mm|Usage=FLASHONLY|Rotation=0.000|XOffset=0mm|YOffset=0mm|HoleType=Round|Shape=RoundedRectangle|*
%AMROUNDEDRECTD23*
21,1,1.0000,1.8000,0,0,0.0*
21,1,0.8000,2.0000,0,0,0.0*
1,1,0.2000,0.4000,-0.9000*
1,1,0.2000,-0.4000,-0.9000*
1,1,0.2000,-0.4000,0.9000*
1,1,0.2000,0.4000,0.9000*
%
%ADD23ROUNDEDRECTD23*%
%ADD24R,1.2000X1.4000*%
G04:AMPARAMS|DCode=25|XSize=0.45mm|YSize=1.45mm|CornerRadius=0.045mm|HoleSize=0mm|Usage=FLASHONLY|Rotation=180.000|XOffset=0mm|YOffset=0mm|HoleType=Round|Shape=RoundedRectangle|*
%AMROUNDEDRECTD25*
21,1,0.4500,1.3600,0,0,180.0*
21,1,0.3600,1.4500,0,0,180.0*
1,1,0.0900,-0.1800,0.6800*
1,1,0.0900,0.1800,0.6800*
1,1,0.0900,0.1800,-0.6800*
1,1,0.0900,-0.1800,-0.6800*
%
%ADD25ROUNDEDRECTD25*%
%ADD26R,3.0000X3.1000*%
%ADD27O,1.6500X0.3500*%
%ADD28C,0.2000*%
%ADD29C,0.3500*%
%ADD30C,1.2000*%
%ADD31C,0.5000*%
%ADD32C,1.0000*%
%ADD33C,0.8000*%
%ADD34C,0.4500*%
%ADD35C,0.3000*%
%ADD36R,0.3000X1.4000*%
%ADD37R,1.1000X0.3000*%
%ADD38R,1.0000X0.5000*%
%ADD39R,1.5000X1.5000*%
%ADD40C,1.5000*%
%ADD41C,6.5000*%
%ADD42R,1.5000X1.5000*%
%ADD43R,1.3500X1.3500*%
%ADD44C,1.3500*%
%ADD45R,1.3500X1.3500*%
%ADD46C,2.8000*%
%ADD47C,3.0000*%
%ADD48C,2.0000*%
%ADD49C,0.6000*%
%ADD50C,0.5000*%
G36*
X622000Y782000D02*
X619000D01*
Y745000D01*
X739843D01*
X740235Y744738D01*
X742000Y744387D01*
X743765Y744738D01*
X744157Y745000D01*
X770000D01*
Y695000D01*
X796000Y669000D01*
Y628000D01*
X799000Y625000D01*
Y624000D01*
X800000D01*
X800000Y624000D01*
X810109D01*
X810708Y622880D01*
X810348Y622341D01*
X809883Y620000D01*
X810348Y617659D01*
X811674Y615674D01*
X813659Y614348D01*
X816000Y613882D01*
Y589000D01*
X813000Y586000D01*
X797000D01*
X793000Y590000D01*
Y597564D01*
X793262Y597738D01*
X794261Y599235D01*
X794613Y601000D01*
X794261Y602765D01*
X793262Y604262D01*
X793000Y604436D01*
Y607683D01*
X793652Y608659D01*
X794118Y611000D01*
X793652Y613341D01*
X792326Y615326D01*
X790341Y616652D01*
X788000Y617118D01*
X786234Y616766D01*
X782524Y620476D01*
Y621524D01*
X781476D01*
X776000Y627000D01*
X751822D01*
X751524Y627059D01*
X751524Y627059D01*
X738941D01*
X737000Y629000D01*
Y637000D01*
X736524D01*
Y637524D01*
X723476D01*
Y637000D01*
X664000D01*
Y613000D01*
X614908D01*
X614021Y613908D01*
X614546Y637000D01*
X614414D01*
X614000Y638000D01*
X614000D01*
X614000Y638000D01*
Y791000D01*
X622000D01*
Y782000D01*
D02*
G37*
G36*
X723476Y625476D02*
X731664D01*
X735344Y621796D01*
X735344Y621796D01*
X736344Y621128D01*
X737476Y620902D01*
Y614583D01*
X728529D01*
X728527Y614584D01*
X727250Y614838D01*
X714250D01*
X712972Y614584D01*
X711890Y613860D01*
X711166Y612777D01*
X710912Y611500D01*
X711166Y610223D01*
X711890Y609140D01*
X712000Y609066D01*
Y607434D01*
X711890Y607360D01*
X711166Y606277D01*
X710912Y605000D01*
X711166Y603722D01*
X711890Y602640D01*
X712000Y602566D01*
Y600934D01*
X711890Y600860D01*
X711166Y599777D01*
X710912Y598500D01*
X711166Y597223D01*
X711890Y596140D01*
X712000Y596066D01*
Y594434D01*
X711890Y594360D01*
X711166Y593277D01*
X710912Y592000D01*
X711166Y590723D01*
X711890Y589640D01*
X712000Y589566D01*
Y587934D01*
X711890Y587860D01*
X711166Y586777D01*
X710912Y585500D01*
X711166Y584223D01*
X711890Y583140D01*
X712972Y582416D01*
X714250Y582162D01*
X726191D01*
X727235Y581465D01*
X729000Y581113D01*
X730765Y581465D01*
X732262Y582464D01*
X733476Y581653D01*
Y574476D01*
X746524D01*
Y587426D01*
X783000D01*
X783985Y587622D01*
X784820Y588180D01*
X792000Y581000D01*
Y562000D01*
Y555360D01*
X759722Y523082D01*
X745379D01*
X745260Y523261D01*
X743764Y524260D01*
X741999Y524612D01*
X740233Y524260D01*
X738737Y523261D01*
X737737Y521764D01*
X737386Y519999D01*
X737737Y518234D01*
X738737Y516737D01*
X738737Y516737D01*
X735000Y513000D01*
X728650D01*
X728166Y514166D01*
X727000Y514650D01*
X650524D01*
Y515476D01*
X650524D01*
Y518662D01*
X653000D01*
X654277Y518916D01*
X655360Y519640D01*
X659360Y523640D01*
X660084Y524723D01*
X660338Y526000D01*
Y542853D01*
X661262Y544235D01*
X661613Y546000D01*
X661262Y547765D01*
X660338Y549147D01*
Y569162D01*
X669750D01*
X671027Y569416D01*
X672110Y570140D01*
X672512Y570741D01*
X673776Y570865D01*
X676667Y567974D01*
Y562131D01*
X676488Y562012D01*
X675489Y560515D01*
X675137Y558750D01*
X675489Y556985D01*
X676488Y555488D01*
X677985Y554488D01*
X679750Y554137D01*
X681515Y554488D01*
X683012Y555488D01*
X684012Y556985D01*
X684363Y558750D01*
X684012Y560515D01*
X683012Y562012D01*
X682833Y562131D01*
Y569251D01*
X682833Y569251D01*
X682598Y570431D01*
X681930Y571432D01*
X672330Y581032D01*
X672110Y581360D01*
X672000Y581434D01*
Y583066D01*
X672110Y583140D01*
X672834Y584223D01*
X673088Y585500D01*
X672834Y586777D01*
X672110Y587860D01*
X672000Y587934D01*
Y589566D01*
X672110Y589640D01*
X672834Y590723D01*
X673088Y592000D01*
X672834Y593277D01*
X672110Y594360D01*
X672000Y594434D01*
Y596066D01*
X672110Y596140D01*
X672834Y597223D01*
X673088Y598500D01*
X672834Y599777D01*
X672110Y600860D01*
X672000Y600934D01*
Y602566D01*
X672110Y602640D01*
X672834Y603722D01*
X673088Y605000D01*
X672834Y606277D01*
X672110Y607360D01*
X672000Y607434D01*
Y609066D01*
X672110Y609140D01*
X672834Y610223D01*
X673088Y611500D01*
X672834Y612777D01*
X672110Y613860D01*
X671027Y614584D01*
X669750Y614838D01*
X666650D01*
Y616000D01*
X666580Y616167D01*
Y629000D01*
X666580Y629000D01*
X666580Y629000D01*
Y629000D01*
Y635350D01*
X723476D01*
Y625476D01*
D02*
G37*
G36*
X710000Y216097D02*
X649542D01*
X602871Y262768D01*
Y270340D01*
X615000Y276000D01*
X621476D01*
Y275476D01*
X633524D01*
Y276000D01*
X638476D01*
Y275476D01*
X650524D01*
Y276000D01*
X654000D01*
X662000Y284000D01*
X710000D01*
Y216097D01*
D02*
G37*
G36*
X727000Y504613D02*
X725235Y504262D01*
X723738Y503262D01*
X722738Y501765D01*
X722387Y500000D01*
X722738Y498235D01*
X723738Y496738D01*
X724426Y496279D01*
Y470055D01*
X724622Y469070D01*
X725180Y468235D01*
X813427Y379989D01*
Y362066D01*
X807180Y355820D01*
X803000Y360000D01*
X798000Y365000D01*
Y367000D01*
Y376000D01*
X795000Y379000D01*
X794511Y379489D01*
X794613Y380000D01*
X794261Y381765D01*
X793262Y383262D01*
X791765Y384262D01*
X790000Y384613D01*
X789489Y384511D01*
X779000Y395000D01*
X760000D01*
X752000Y403000D01*
X747000Y408000D01*
X668000D01*
Y373000D01*
X614000D01*
X613006Y512099D01*
X613901Y513000D01*
X727000D01*
Y504613D01*
D02*
G37*
G36*
X733476Y405524D02*
X733476D01*
Y393476D01*
X738000D01*
Y390524D01*
X733476D01*
Y382697D01*
X726617Y375838D01*
X714250D01*
X712972Y375584D01*
X711890Y374860D01*
X711166Y373777D01*
X710912Y372500D01*
X711166Y371222D01*
X711890Y370140D01*
X712271Y369885D01*
Y368615D01*
X711890Y368360D01*
X711166Y367277D01*
X710912Y366000D01*
X711166Y364723D01*
X711890Y363640D01*
X712271Y363385D01*
Y362115D01*
X711890Y361860D01*
X711166Y360777D01*
X710912Y359500D01*
X711166Y358223D01*
X711890Y357140D01*
X712271Y356885D01*
Y355615D01*
X711890Y355360D01*
X711166Y354277D01*
X710912Y353000D01*
X711166Y351722D01*
X711890Y350640D01*
X712271Y350385D01*
Y349115D01*
X711890Y348860D01*
X711166Y347777D01*
X710912Y346500D01*
X711166Y345223D01*
X711890Y344140D01*
X712972Y343416D01*
X714250Y343162D01*
X726353D01*
X727735Y342239D01*
X729500Y341887D01*
X731265Y342239D01*
X732762Y343238D01*
X733261Y343985D01*
X734476Y343617D01*
Y343476D01*
X747524D01*
X749363Y341637D01*
X749280Y340369D01*
X748347Y339653D01*
X747301Y338290D01*
X746644Y336703D01*
X746420Y335000D01*
Y325000D01*
X746644Y323297D01*
X747301Y321710D01*
X748347Y320347D01*
X749710Y319301D01*
X751297Y318644D01*
X753000Y318420D01*
X754703Y318644D01*
X756290Y319301D01*
X757653Y320347D01*
X758187Y320881D01*
X764464Y314961D01*
X764482Y313691D01*
X754365Y303573D01*
X741000D01*
X740015Y303378D01*
X739180Y302820D01*
X733180Y296820D01*
X732622Y295985D01*
X732427Y295000D01*
Y286000D01*
X663500D01*
X658180Y291320D01*
X658848Y292320D01*
X659083Y293500D01*
X659083Y293500D01*
Y321619D01*
X659262Y321738D01*
X660262Y323235D01*
X660613Y325000D01*
X660262Y326765D01*
X659262Y328262D01*
X659083Y328381D01*
Y330162D01*
X669750D01*
X671027Y330416D01*
X672110Y331140D01*
X672512Y331741D01*
X673776Y331865D01*
X678917Y326724D01*
Y323381D01*
X678738Y323262D01*
X677738Y321765D01*
X677387Y320000D01*
X677738Y318235D01*
X678738Y316738D01*
X680235Y315739D01*
X682000Y315387D01*
X683765Y315739D01*
X685262Y316738D01*
X686262Y318235D01*
X686613Y320000D01*
X686262Y321765D01*
X685262Y323262D01*
X685083Y323381D01*
Y328001D01*
X685083Y328001D01*
X684887Y328985D01*
X684848Y329181D01*
X684180Y330182D01*
X684180Y330182D01*
X672330Y342032D01*
X672110Y342360D01*
X672000Y342434D01*
Y344066D01*
X672110Y344140D01*
X672834Y345223D01*
X673088Y346500D01*
X672834Y347777D01*
X672110Y348860D01*
X672000Y348934D01*
Y350566D01*
X672110Y350640D01*
X672834Y351722D01*
X673088Y353000D01*
X672834Y354277D01*
X672110Y355360D01*
X672000Y355434D01*
Y357066D01*
X672110Y357140D01*
X672834Y358223D01*
X673088Y359500D01*
X672834Y360777D01*
X672110Y361860D01*
X672000Y361934D01*
Y363566D01*
X672110Y363640D01*
X672834Y364723D01*
X673088Y366000D01*
X672834Y367277D01*
X672110Y368360D01*
X672000Y368434D01*
Y370066D01*
X672110Y370140D01*
X672834Y371222D01*
X673088Y372500D01*
X672834Y373777D01*
X672110Y374860D01*
X671027Y375584D01*
X670264Y375736D01*
X670000Y376000D01*
X669650D01*
Y406350D01*
X733476D01*
Y405524D01*
D02*
G37*
G36*
X646656Y211704D02*
X647491Y211146D01*
X648476Y210951D01*
X838928D01*
X839738Y209738D01*
X841235Y208738D01*
X843000Y208387D01*
X844765Y208738D01*
X846262Y209738D01*
X846785Y210521D01*
X848000Y210153D01*
Y208000D01*
X837000Y197000D01*
X837000Y197000D01*
X729000D01*
Y150000D01*
X711000Y132000D01*
X703972D01*
X703709Y135339D01*
X702459Y140547D01*
X700409Y145494D01*
X697611Y150061D01*
X694133Y154133D01*
X690061Y157611D01*
X685494Y160409D01*
X680546Y162459D01*
X675339Y163709D01*
X670000Y164129D01*
X664661Y163709D01*
X659454Y162459D01*
X654506Y160409D01*
X649939Y157611D01*
X645867Y154133D01*
X644899Y153000D01*
X599347D01*
Y257354D01*
X600521Y257840D01*
X646656Y211704D01*
D02*
G37*
G36*
X878180Y65180D02*
X879015Y64622D01*
X880000Y64426D01*
X881000D01*
Y51000D01*
X867020D01*
X866534Y52173D01*
X869790Y55429D01*
X870000Y55387D01*
X871765Y55739D01*
X873262Y56738D01*
X874261Y58235D01*
X874613Y60000D01*
X874261Y61765D01*
X873262Y63262D01*
X871765Y64261D01*
X870000Y64613D01*
X868235Y64261D01*
X866738Y63262D01*
X865739Y61765D01*
X865387Y60000D01*
X865429Y59790D01*
X861675Y56035D01*
X857055D01*
X856569Y57209D01*
X859790Y60429D01*
X860000Y60387D01*
X861765Y60739D01*
X863262Y61738D01*
X864261Y63235D01*
X864613Y65000D01*
X864261Y66765D01*
X863262Y68262D01*
X861765Y69261D01*
X860000Y69613D01*
X858235Y69261D01*
X857707Y68909D01*
X856534Y69395D01*
X856262Y70765D01*
X855262Y72262D01*
X853765Y73261D01*
X852000Y73613D01*
X850235Y73261D01*
X848738Y72262D01*
X847738Y70765D01*
X847387Y69000D01*
X847429Y68790D01*
X843723Y65083D01*
X806380D01*
X805894Y66257D01*
X808187Y68549D01*
X808998Y68387D01*
X810764Y68738D01*
X812260Y69738D01*
X813260Y71235D01*
X813611Y73000D01*
X813260Y74765D01*
X812898Y75307D01*
X813497Y76427D01*
X866934D01*
X878180Y65180D01*
D02*
G37*
G36*
X794000Y859000D02*
X782000D01*
Y860000D01*
X767000Y875000D01*
Y876000D01*
X765000Y878000D01*
X731000D01*
X718000Y865000D01*
X700000D01*
X699524Y864524D01*
X698476D01*
Y863476D01*
X694000Y859000D01*
Y843000D01*
X692000Y841000D01*
X658000D01*
X655000Y844000D01*
X649536D01*
X649045Y844097D01*
X634524D01*
X634034Y844000D01*
X604000D01*
Y366507D01*
X602736Y366382D01*
X602676Y366687D01*
X602118Y367522D01*
X600000Y369639D01*
Y750260D01*
X600412Y751031D01*
X601299Y753957D01*
X601599Y757000D01*
X601299Y760043D01*
X600412Y762970D01*
X600000Y763740D01*
X598970Y765666D01*
X597030Y768030D01*
X594666Y769970D01*
X591969Y771412D01*
X589043Y772299D01*
X586000Y772599D01*
X582957Y772299D01*
X580031Y771412D01*
X578687Y770694D01*
X561945D01*
X560959Y771690D01*
X558000Y774678D01*
Y949000D01*
X794000D01*
Y859000D01*
D02*
G37*
G36*
X869880Y207520D02*
X862812Y200451D01*
X862000Y200613D01*
X860235Y200261D01*
X858738Y199262D01*
X857738Y197765D01*
X857387Y196000D01*
X857738Y194235D01*
X858738Y192738D01*
X860235Y191738D01*
X862000Y191387D01*
X863765Y191738D01*
X865262Y192738D01*
X866262Y194235D01*
X866613Y196000D01*
X866451Y196812D01*
X872885Y203245D01*
X874155D01*
X876545Y200855D01*
Y199585D01*
X841430Y164470D01*
X840872Y163635D01*
X840677Y162650D01*
Y155471D01*
X839988Y155012D01*
X838988Y153515D01*
X838637Y151750D01*
X838988Y149985D01*
X839216Y149644D01*
X838617Y148524D01*
X820476D01*
Y132524D01*
X820024D01*
Y132524D01*
X801976D01*
Y116476D01*
X806902D01*
Y111634D01*
X806488Y111015D01*
X806137Y109250D01*
X806488Y107485D01*
X807488Y105988D01*
X808985Y104988D01*
X810750Y104637D01*
X812515Y104988D01*
X814012Y105988D01*
X815012Y107485D01*
X815363Y109250D01*
X815012Y111015D01*
X814598Y111634D01*
Y116476D01*
X819578D01*
X819578Y116476D01*
Y116476D01*
X820024Y116476D01*
X820476Y116024D01*
Y103476D01*
X841524D01*
Y105476D01*
X842476D01*
Y105476D01*
X855524D01*
Y117524D01*
X842476D01*
Y117524D01*
X842422D01*
X841524Y118422D01*
Y119524D01*
X820922D01*
X820922Y119524D01*
Y119524D01*
X820476Y119524D01*
X820024Y119976D01*
Y132476D01*
X820476D01*
Y132476D01*
D01*
X841524D01*
Y137417D01*
X849500D01*
X849500Y137417D01*
X850680Y137652D01*
X851680Y138320D01*
X861790Y148429D01*
X862000Y148387D01*
X863765Y148738D01*
X865262Y149738D01*
X866262Y151235D01*
X866613Y153000D01*
X866262Y154765D01*
X865262Y156262D01*
X863765Y157261D01*
X862000Y157613D01*
X860235Y157261D01*
X858738Y156262D01*
X857738Y154765D01*
X857387Y153000D01*
X857429Y152790D01*
X848223Y143583D01*
X841524D01*
Y146480D01*
X842506Y147285D01*
X843250Y147137D01*
X845015Y147488D01*
X846512Y148488D01*
X847512Y149985D01*
X847863Y151750D01*
X847512Y153515D01*
X846512Y155012D01*
X845824Y155471D01*
Y161584D01*
X879827Y195587D01*
X881000Y195101D01*
Y153000D01*
Y132639D01*
X876934Y128574D01*
X865000D01*
X864015Y128378D01*
X863180Y127820D01*
X859180Y123820D01*
X858622Y122985D01*
X858427Y122000D01*
Y96050D01*
X854998Y92621D01*
X794002D01*
X790279Y96344D01*
X789445Y96902D01*
X788460Y97097D01*
X775245D01*
X774786Y97786D01*
X773289Y98785D01*
X771524Y99137D01*
X769759Y98785D01*
X768262Y97786D01*
X767262Y96289D01*
X766911Y94524D01*
X767262Y92759D01*
X768262Y91262D01*
X769759Y90262D01*
X771524Y89911D01*
X772532Y90112D01*
X773430Y89214D01*
X773387Y89000D01*
X773738Y87235D01*
X774738Y85738D01*
X776235Y84739D01*
X778000Y84387D01*
X779652Y84716D01*
X780038Y84330D01*
X780511Y83622D01*
X780387Y83000D01*
X780739Y81235D01*
X781738Y79738D01*
X783235Y78738D01*
X785000Y78387D01*
X786652Y78716D01*
X787038Y78330D01*
X787511Y77622D01*
X787387Y77000D01*
X787738Y75235D01*
X788099Y74695D01*
X787501Y73575D01*
X720064D01*
X714163Y79477D01*
X714531Y80692D01*
X714765Y80738D01*
X716262Y81738D01*
X717262Y83235D01*
X717613Y85000D01*
X717262Y86765D01*
X716262Y88262D01*
X714765Y89262D01*
X713000Y89613D01*
X711348Y89284D01*
X710962Y89670D01*
X710489Y90378D01*
X710613Y91000D01*
X710262Y92765D01*
X709262Y94262D01*
X707765Y95261D01*
X706000Y95613D01*
X704235Y95261D01*
X702738Y94262D01*
X702446Y93823D01*
X670000D01*
Y95871D01*
X675339Y96291D01*
X680546Y97541D01*
X685494Y99591D01*
X690061Y102389D01*
X694133Y105867D01*
X697611Y109939D01*
X700409Y114506D01*
X702459Y119453D01*
X703709Y124661D01*
X704129Y130000D01*
X704453Y130350D01*
X711000D01*
X712166Y130834D01*
X718765Y137432D01*
X721599Y134599D01*
X722930Y133709D01*
X723190Y133658D01*
X724500Y133397D01*
X736476D01*
Y131476D01*
X749524D01*
Y143524D01*
X736476D01*
Y141603D01*
X726199D01*
X724568Y143235D01*
X730166Y148834D01*
X730650Y150000D01*
Y190420D01*
X837000D01*
X837428Y190476D01*
X843524D01*
Y196572D01*
X843580Y197000D01*
X843524Y197428D01*
Y197722D01*
X852925Y207123D01*
X853814Y208454D01*
X854122Y210000D01*
X867400D01*
X869880Y207520D01*
D02*
G37*
G36*
X748476Y865476D02*
X744524Y861524D01*
X732476D01*
Y853336D01*
X723978Y844838D01*
X714250D01*
X712973Y844584D01*
X711890Y843860D01*
X711166Y842777D01*
X710912Y841500D01*
X711166Y840223D01*
X711890Y839140D01*
X712271Y838885D01*
Y837615D01*
X711890Y837360D01*
X711166Y836277D01*
X710912Y835000D01*
X711166Y833723D01*
X711890Y832640D01*
X712271Y832385D01*
Y831115D01*
X711890Y830860D01*
X711166Y829778D01*
X710912Y828500D01*
X711166Y827223D01*
X711890Y826140D01*
X712271Y825885D01*
Y824615D01*
X711890Y824360D01*
X711166Y823278D01*
X710912Y822000D01*
X711166Y820723D01*
X711890Y819640D01*
X712271Y819385D01*
Y818115D01*
X711890Y817860D01*
X711166Y816777D01*
X710912Y815500D01*
X711166Y814223D01*
X711890Y813140D01*
X712973Y812416D01*
X714250Y812162D01*
X728601D01*
X729235Y811739D01*
X731000Y811387D01*
X732765Y811739D01*
X734262Y812738D01*
X735262Y814235D01*
X735613Y816000D01*
X736003Y816476D01*
X747524D01*
Y826174D01*
X748697Y826660D01*
X749179Y826179D01*
X750014Y825621D01*
X750999Y825425D01*
X751277D01*
X751737Y824737D01*
X753234Y823737D01*
X754999Y823386D01*
X756764Y823737D01*
X758260Y824737D01*
X759260Y826233D01*
X759611Y827998D01*
X759260Y829763D01*
X759183Y829880D01*
X759781Y831000D01*
X795000D01*
Y796524D01*
X789476D01*
Y789836D01*
X751723Y752083D01*
X745381D01*
X745262Y752262D01*
X743765Y753261D01*
X742000Y753613D01*
X740235Y753261D01*
X738738Y752262D01*
X737738Y750765D01*
X737387Y749000D01*
X737590Y747982D01*
X736784Y747000D01*
X649524D01*
Y747476D01*
X649524D01*
Y750766D01*
X650277Y750916D01*
X651360Y751640D01*
X656360Y756640D01*
X657084Y757723D01*
X657338Y759000D01*
Y790853D01*
X658261Y792235D01*
X658613Y794000D01*
X658261Y795765D01*
X657338Y797147D01*
Y798617D01*
X657883Y799162D01*
X669750D01*
X671028Y799416D01*
X672110Y800140D01*
X672512Y800741D01*
X673776Y800865D01*
X675917Y798724D01*
Y790381D01*
X675738Y790262D01*
X674738Y788765D01*
X674387Y787000D01*
X674738Y785235D01*
X675738Y783738D01*
X677235Y782738D01*
X679000Y782387D01*
X680765Y782738D01*
X682262Y783738D01*
X683261Y785235D01*
X683613Y787000D01*
X683261Y788765D01*
X682262Y790262D01*
X682083Y790381D01*
Y800001D01*
X682083Y800002D01*
X681849Y801181D01*
X681180Y802182D01*
X672330Y811032D01*
X672110Y811360D01*
X672000Y811434D01*
Y813066D01*
X672110Y813140D01*
X672834Y814223D01*
X673088Y815500D01*
X672834Y816777D01*
X672110Y817860D01*
X672000Y817934D01*
Y819566D01*
X672110Y819640D01*
X672191Y819760D01*
X672820Y820180D01*
X673378Y821015D01*
X673574Y822000D01*
X673378Y822985D01*
X672820Y823820D01*
X672191Y824240D01*
X672110Y824360D01*
X672000Y824434D01*
Y826066D01*
X672110Y826140D01*
X672834Y827223D01*
X673088Y828500D01*
X672834Y829778D01*
X672110Y830860D01*
X672000Y830934D01*
Y832566D01*
X672110Y832640D01*
X672834Y833723D01*
X673088Y835000D01*
X672834Y836277D01*
X672110Y837360D01*
X672000Y837434D01*
Y839066D01*
X672110Y839140D01*
X672251Y839350D01*
X692000D01*
X693166Y839834D01*
X695166Y841833D01*
X695650Y843000D01*
Y858317D01*
X699642Y862310D01*
X699822Y862742D01*
X700258Y863178D01*
X700349Y863216D01*
X700673Y863350D01*
X718000D01*
X719166Y863834D01*
X731683Y876350D01*
X748476D01*
Y865476D01*
D02*
G37*
%LPC*%
G36*
X765524Y127524D02*
X752476D01*
Y124348D01*
X749524D01*
Y126524D01*
X736476D01*
Y114476D01*
X749524D01*
Y116652D01*
X752476D01*
Y114476D01*
X755152D01*
Y111384D01*
X754738Y110765D01*
X754387Y109000D01*
X754738Y107235D01*
X755738Y105738D01*
X757235Y104739D01*
X759000Y104387D01*
X760765Y104739D01*
X762262Y105738D01*
X763261Y107235D01*
X763613Y109000D01*
X763261Y110765D01*
X762848Y111384D01*
Y114476D01*
X765524D01*
Y127524D01*
D02*
G37*
G36*
X727250Y336838D02*
X714250D01*
X712972Y336584D01*
X711890Y335860D01*
X711166Y334777D01*
X710912Y333500D01*
X711166Y332223D01*
X711890Y331140D01*
X712972Y330416D01*
X714250Y330162D01*
X727250D01*
X728527Y330416D01*
X729610Y331140D01*
X730334Y332223D01*
X730588Y333500D01*
X730334Y334777D01*
X729610Y335860D01*
X728527Y336584D01*
X727250Y336838D01*
D02*
G37*
G36*
X752000Y802580D02*
X750297Y802356D01*
X748710Y801699D01*
X747347Y800653D01*
X746301Y799290D01*
X745644Y797703D01*
X745420Y796000D01*
Y786000D01*
X745644Y784297D01*
X746301Y782710D01*
X747347Y781347D01*
X748710Y780301D01*
X750297Y779644D01*
X752000Y779420D01*
X753703Y779644D01*
X755290Y780301D01*
X756653Y781347D01*
X760782Y785476D01*
X774524D01*
Y796524D01*
X760782D01*
X756653Y800653D01*
X755290Y801699D01*
X753703Y802356D01*
X752000Y802580D01*
D02*
G37*
G36*
X727250Y805838D02*
X714250D01*
X712973Y805584D01*
X711890Y804860D01*
X711166Y803777D01*
X710912Y802500D01*
X711166Y801223D01*
X711890Y800140D01*
X712973Y799416D01*
X714250Y799162D01*
X727250D01*
X728528Y799416D01*
X729610Y800140D01*
X730334Y801223D01*
X730588Y802500D01*
X730334Y803777D01*
X729610Y804860D01*
X728528Y805584D01*
X727250Y805838D01*
D02*
G37*
G36*
X670000Y933129D02*
X664661Y932709D01*
X659454Y931459D01*
X654506Y929409D01*
X649939Y926611D01*
X645867Y923133D01*
X642389Y919061D01*
X639591Y914494D01*
X637541Y909547D01*
X636291Y904339D01*
X635871Y899000D01*
X636291Y893661D01*
X637541Y888454D01*
X639591Y883506D01*
X642389Y878939D01*
X645867Y874867D01*
X649939Y871389D01*
X654506Y868591D01*
X659454Y866541D01*
X664661Y865291D01*
X670000Y864871D01*
X675339Y865291D01*
X680546Y866541D01*
X685494Y868591D01*
X690061Y871389D01*
X694133Y874867D01*
X697611Y878939D01*
X700409Y883506D01*
X702459Y888454D01*
X703709Y893661D01*
X704129Y899000D01*
X703709Y904339D01*
X702459Y909547D01*
X700409Y914494D01*
X697611Y919061D01*
X694133Y923133D01*
X690061Y926611D01*
X685494Y929409D01*
X680546Y931459D01*
X675339Y932709D01*
X670000Y933129D01*
D02*
G37*
G36*
X756000Y569580D02*
X754297Y569356D01*
X752710Y568699D01*
X751347Y567653D01*
X750301Y566290D01*
X749644Y564703D01*
X749420Y563000D01*
Y553000D01*
X749644Y551297D01*
X750301Y549710D01*
X751347Y548347D01*
X752710Y547301D01*
X754297Y546644D01*
X756000Y546420D01*
X757703Y546644D01*
X759290Y547301D01*
X760653Y548347D01*
X764782Y552476D01*
X778524D01*
Y563524D01*
X764782D01*
X760653Y567653D01*
X759290Y568699D01*
X757703Y569356D01*
X756000Y569580D01*
D02*
G37*
G36*
X727250Y575838D02*
X714250D01*
X712972Y575584D01*
X711890Y574860D01*
X711166Y573777D01*
X710912Y572500D01*
X711166Y571223D01*
X711890Y570140D01*
X712972Y569416D01*
X714250Y569162D01*
X727250D01*
X728527Y569416D01*
X729610Y570140D01*
X730334Y571223D01*
X730588Y572500D01*
X730334Y573777D01*
X729610Y574860D01*
X728527Y575584D01*
X727250Y575838D01*
D02*
G37*
G36*
X753000Y739623D02*
X749992Y739227D01*
X747188Y738066D01*
X744781Y736219D01*
X742934Y733812D01*
X741773Y731008D01*
X741377Y728000D01*
X741773Y724992D01*
X742934Y722188D01*
X744781Y719781D01*
X747188Y717934D01*
X749992Y716773D01*
X753000Y716376D01*
X756008Y716773D01*
X758812Y717934D01*
X761219Y719781D01*
X763066Y722188D01*
X764227Y724992D01*
X764623Y728000D01*
X764227Y731008D01*
X763066Y733812D01*
X761219Y736219D01*
X758812Y738066D01*
X756008Y739227D01*
X753000Y739623D01*
D02*
G37*
%LPD*%
D10*
X39000Y934000D02*
D03*
Y908500D02*
D03*
Y883000D02*
D03*
Y857500D02*
D03*
Y637500D02*
D03*
Y663000D02*
D03*
Y688500D02*
D03*
Y714000D02*
D03*
Y287500D02*
D03*
Y313000D02*
D03*
Y338500D02*
D03*
Y364000D02*
D03*
Y144000D02*
D03*
Y118500D02*
D03*
Y93000D02*
D03*
Y67500D02*
D03*
X898000Y67000D02*
D03*
Y92500D02*
D03*
Y118000D02*
D03*
Y143500D02*
D03*
Y287000D02*
D03*
Y312500D02*
D03*
Y338000D02*
D03*
Y363500D02*
D03*
Y637000D02*
D03*
Y662500D02*
D03*
Y688000D02*
D03*
Y713500D02*
D03*
Y857000D02*
D03*
Y882500D02*
D03*
Y908000D02*
D03*
Y933500D02*
D03*
D11*
X587750Y375000D02*
D03*
Y345000D02*
D03*
X520250D02*
D03*
Y375000D02*
D03*
X587750Y133000D02*
D03*
Y103000D02*
D03*
X520250D02*
D03*
Y133000D02*
D03*
X587750Y309000D02*
D03*
Y279000D02*
D03*
X520250D02*
D03*
Y309000D02*
D03*
D12*
X743000Y137500D02*
D03*
Y120500D02*
D03*
X730000Y648500D02*
D03*
Y631500D02*
D03*
X849000Y111500D02*
D03*
Y128500D02*
D03*
X644000Y297500D02*
D03*
Y314500D02*
D03*
X628000Y314500D02*
D03*
Y297500D02*
D03*
X740000Y416500D02*
D03*
Y399500D02*
D03*
X536000Y463500D02*
D03*
Y446500D02*
D03*
X554000Y463500D02*
D03*
Y446500D02*
D03*
X572000Y463500D02*
D03*
Y446500D02*
D03*
X643000Y817500D02*
D03*
Y834500D02*
D03*
X644000Y537500D02*
D03*
Y554500D02*
D03*
X628000Y554500D02*
D03*
Y537500D02*
D03*
X627000Y786500D02*
D03*
Y769500D02*
D03*
X643000Y769500D02*
D03*
Y786500D02*
D03*
X644000Y585500D02*
D03*
Y602500D02*
D03*
Y345500D02*
D03*
Y362500D02*
D03*
D13*
X831000Y140500D02*
D03*
Y111500D02*
D03*
D14*
X884000Y829000D02*
D03*
X868000D02*
D03*
X953000Y829000D02*
D03*
X937000D02*
D03*
X705000Y858000D02*
D03*
X689000D02*
D03*
X676000Y629000D02*
D03*
X660000D02*
D03*
X676000Y390000D02*
D03*
X660000D02*
D03*
X835000Y400000D02*
D03*
X851000D02*
D03*
X871000Y338000D02*
D03*
X855000D02*
D03*
X643000Y802000D02*
D03*
X627000D02*
D03*
X644000Y570000D02*
D03*
X628000D02*
D03*
X644000Y330000D02*
D03*
X628000D02*
D03*
X859000Y302000D02*
D03*
X875000D02*
D03*
X859000Y275000D02*
D03*
X875000D02*
D03*
X873000Y157613D02*
D03*
X889000D02*
D03*
D15*
X849500Y754000D02*
D03*
X832500D02*
D03*
X902500D02*
D03*
X919500D02*
D03*
D16*
X861000Y680500D02*
D03*
Y697500D02*
D03*
X811000Y124500D02*
D03*
Y141500D02*
D03*
D17*
X861000Y644000D02*
D03*
Y662000D02*
D03*
X919000Y792000D02*
D03*
Y774000D02*
D03*
X849000Y792000D02*
D03*
Y774000D02*
D03*
D18*
X765000Y791000D02*
D03*
X799000D02*
D03*
X769000Y558000D02*
D03*
X803000D02*
D03*
X766000Y330000D02*
D03*
X800000D02*
D03*
D19*
X749500Y644000D02*
D03*
X808500D02*
D03*
X757500Y412000D02*
D03*
X816500D02*
D03*
D20*
X743500Y615000D02*
D03*
X760500D02*
D03*
X760500Y599000D02*
D03*
X743500D02*
D03*
X841500Y265000D02*
D03*
X824500D02*
D03*
X739500Y384000D02*
D03*
X756500D02*
D03*
Y368000D02*
D03*
X739500D02*
D03*
X771500Y871000D02*
D03*
X754500D02*
D03*
X738500Y855000D02*
D03*
X755500D02*
D03*
X755500Y839000D02*
D03*
X738500D02*
D03*
X626500Y754000D02*
D03*
X643500D02*
D03*
X871500Y364000D02*
D03*
X854500D02*
D03*
X627500Y522000D02*
D03*
X644500D02*
D03*
X627500Y282000D02*
D03*
X644500D02*
D03*
D21*
X740000Y565000D02*
D03*
Y581000D02*
D03*
X776000Y615000D02*
D03*
Y599000D02*
D03*
X837000Y197000D02*
D03*
Y181000D02*
D03*
X759000Y121000D02*
D03*
Y137000D02*
D03*
X772000Y384000D02*
D03*
Y368000D02*
D03*
X741000Y334000D02*
D03*
Y350000D02*
D03*
X771000Y855000D02*
D03*
Y839000D02*
D03*
X741000Y807000D02*
D03*
Y823000D02*
D03*
X627000Y818000D02*
D03*
Y834000D02*
D03*
X628000Y586000D02*
D03*
Y602000D02*
D03*
X628000Y346000D02*
D03*
Y362000D02*
D03*
X858000Y611000D02*
D03*
Y627000D02*
D03*
X872000Y134000D02*
D03*
Y118000D02*
D03*
D22*
X536000Y527000D02*
D03*
X572000D02*
D03*
Y483000D02*
D03*
X536000D02*
D03*
D23*
X554000D02*
D03*
Y527000D02*
D03*
D24*
X806000Y873000D02*
D03*
X788000D02*
D03*
D25*
X844000Y630000D02*
D03*
X837500D02*
D03*
X831000D02*
D03*
X824500D02*
D03*
Y689000D02*
D03*
X831000D02*
D03*
X837500D02*
D03*
X844000D02*
D03*
X852999Y416000D02*
D03*
X846499D02*
D03*
X839999D02*
D03*
X833499D02*
D03*
Y475000D02*
D03*
X839999D02*
D03*
X846499D02*
D03*
X852999D02*
D03*
X936000Y813000D02*
D03*
X942500D02*
D03*
X949000D02*
D03*
X955500D02*
D03*
Y754000D02*
D03*
X949000D02*
D03*
X942500D02*
D03*
X936000D02*
D03*
X866000Y813000D02*
D03*
X872500D02*
D03*
X879000D02*
D03*
X885500D02*
D03*
Y754000D02*
D03*
X879000D02*
D03*
X872500D02*
D03*
X866000D02*
D03*
D26*
X692000Y822000D02*
D03*
X692000Y592000D02*
D03*
Y353000D02*
D03*
D27*
X720750Y802500D02*
D03*
Y809000D02*
D03*
Y815500D02*
D03*
Y822000D02*
D03*
Y828500D02*
D03*
Y835000D02*
D03*
Y841500D02*
D03*
X663250Y802500D02*
D03*
Y809000D02*
D03*
Y815500D02*
D03*
Y822000D02*
D03*
Y828500D02*
D03*
Y835000D02*
D03*
Y841500D02*
D03*
X720750Y572500D02*
D03*
Y579000D02*
D03*
Y585500D02*
D03*
Y592000D02*
D03*
Y598500D02*
D03*
Y605000D02*
D03*
Y611500D02*
D03*
X663250Y572500D02*
D03*
Y579000D02*
D03*
Y585500D02*
D03*
Y592000D02*
D03*
Y598500D02*
D03*
Y605000D02*
D03*
Y611500D02*
D03*
X720750Y333500D02*
D03*
Y340000D02*
D03*
Y346500D02*
D03*
Y353000D02*
D03*
Y359500D02*
D03*
Y366000D02*
D03*
Y372500D02*
D03*
X663250Y333500D02*
D03*
Y340000D02*
D03*
Y346500D02*
D03*
Y353000D02*
D03*
Y359500D02*
D03*
Y366000D02*
D03*
Y372500D02*
D03*
D28*
X612750Y91250D02*
X705750D01*
X596774Y107226D02*
X612750Y91250D01*
X596774Y107226D02*
Y302226D01*
X594000Y415000D02*
Y622000D01*
X573200Y642800D02*
X594000Y622000D01*
X529000Y642800D02*
X573200D01*
X587999Y558999D02*
X590476Y556522D01*
X567476Y93524D02*
X579476Y81524D01*
X567476Y93524D02*
Y388476D01*
X594000Y415000D01*
X563952Y389936D02*
X590476Y416460D01*
X563952Y88048D02*
Y389936D01*
Y88048D02*
X574000Y78000D01*
X591000Y375000D02*
X600298Y365702D01*
Y261702D02*
Y365702D01*
X590000Y309000D02*
X596774Y302226D01*
X600298Y261702D02*
X648476Y213524D01*
X843250Y162650D02*
X922600Y242000D01*
X843250Y151750D02*
Y162650D01*
X862000Y196000D02*
X897200Y231200D01*
Y242000D01*
X824500Y245500D02*
Y265000D01*
X802750Y223750D02*
X821000Y242000D01*
X758750Y223750D02*
X802750D01*
X648476Y213524D02*
X842476D01*
X843000Y213000D01*
X792936Y90048D02*
X856064D01*
X788460Y94524D02*
X792936Y90048D01*
X771524Y94524D02*
X788460D01*
X778000Y89000D02*
X789000D01*
X791476Y86524D01*
X865524D01*
X880000Y67000D02*
X898000D01*
X735000Y262000D02*
Y295000D01*
X741000Y301000D01*
X755431D01*
X790955Y336524D01*
X791524D01*
X816000Y361000D01*
Y381055D01*
X727000Y470055D02*
X816000Y381055D01*
X727000Y470055D02*
Y500000D01*
X889500Y143500D02*
X898000D01*
X889000Y118000D02*
X898000D01*
X785000Y83000D02*
X879000D01*
X888500Y92500D01*
X898000D01*
X875000Y287000D02*
X898000D01*
X875500Y312500D02*
X898000D01*
X875000Y313000D02*
X875500Y312500D01*
X865950Y394050D02*
X871000Y389000D01*
X865950Y394050D02*
Y415918D01*
X870428Y420395D01*
Y516000D01*
X869474Y401526D02*
X875000Y396000D01*
X869474Y401526D02*
Y414458D01*
X873952Y418936D01*
X875000Y404001D02*
Y415000D01*
X874998Y403999D02*
X875000Y404001D01*
Y415000D02*
X877476Y417476D01*
X881000Y410000D02*
Y545000D01*
X864428Y522000D02*
X870428Y516000D01*
X845000Y522000D02*
X864428D01*
X833499Y510499D02*
X845000Y522000D01*
X833499Y475000D02*
Y510499D01*
X873952Y418936D02*
Y530048D01*
X853000Y551000D02*
X873952Y530048D01*
X877476Y417476D02*
Y537521D01*
X858998Y555999D02*
X877476Y537521D01*
X863998Y562002D02*
X881000Y545000D01*
X863998Y562002D02*
Y562999D01*
X621954Y353524D02*
X662726D01*
X620000Y338000D02*
X628000Y330000D01*
X620000Y338000D02*
Y351570D01*
X621954Y353524D01*
X662726D02*
X663250Y353000D01*
X628000Y362000D02*
X635524Y369524D01*
X650045D01*
X653569Y366000D01*
X663250D01*
X647000Y359500D02*
X663250D01*
X720750D02*
X721250Y359000D01*
X622430Y594000D02*
X636398D01*
X620476Y592046D02*
X622430Y594000D01*
X620476Y577524D02*
Y592046D01*
X636398Y594000D02*
X650000D01*
X620476Y577524D02*
X628000Y570000D01*
X650000Y594000D02*
X652000Y592000D01*
X663250D01*
X644000Y602500D02*
X648000Y598500D01*
X663250D01*
X628000Y602000D02*
X635524Y609524D01*
X650045D01*
X654569Y605000D01*
X663250D01*
X739430Y590000D02*
X783000D01*
X730930Y598500D02*
X739430Y590000D01*
X720750Y598500D02*
X730930D01*
X790000Y597000D02*
Y601000D01*
X783000Y590000D02*
X790000Y597000D01*
X651570Y822000D02*
X663250D01*
X733524Y830524D02*
X748473D01*
X731500Y828500D02*
X733524Y830524D01*
X720750Y828500D02*
X731500D01*
X627000Y834000D02*
X634524Y841524D01*
X649045D01*
X655570Y835000D01*
X663250D01*
Y822000D02*
X671000D01*
X618000Y811000D02*
X627000Y802000D01*
X618000Y811000D02*
Y824000D01*
X620000Y826000D01*
X634000D01*
X635476Y824524D01*
X649045D01*
X651570Y822000D01*
X643000Y834500D02*
X649000Y828500D01*
X663250D01*
X705750Y91250D02*
X706000Y91000D01*
X587750Y309000D02*
X590000D01*
X576000Y375000D02*
X587750D01*
X587750Y133000D02*
X591000D01*
X573000Y121000D02*
X585000Y133000D01*
X573000Y99000D02*
Y121000D01*
Y99000D02*
X586524Y85476D01*
X590476Y416460D02*
Y556522D01*
X721250Y359000D02*
X780000D01*
X790000Y369000D01*
Y380000D01*
X577000Y310000D02*
X586750D01*
X748473Y830524D02*
X750999Y827998D01*
X754999D01*
X792000Y77000D02*
X794000Y79000D01*
X868000D01*
X880000Y67000D01*
X798000Y71002D02*
X799998Y73000D01*
Y74000D02*
X800000D01*
X579476Y81524D02*
X708476D01*
X718999Y71002D01*
X798000D01*
X574000Y78000D02*
X707016D01*
X717541Y67476D01*
X803474D01*
X808998Y73000D01*
X712524Y85476D02*
X713000Y85000D01*
X586524Y85476D02*
X712524D01*
X865000Y126000D02*
X878000D01*
X884000Y132000D01*
Y139000D01*
X889000Y144000D02*
Y157613D01*
X872000Y118000D02*
X889000D01*
X865524Y86524D02*
X872000Y93000D01*
Y118000D01*
X856064Y90048D02*
X861000Y94984D01*
Y122000D01*
X865000Y126000D01*
X875000Y302000D02*
Y313000D01*
Y275000D02*
Y287000D01*
D29*
X876000Y754000D02*
X879000D01*
X872500D02*
X876000D01*
Y775000D01*
Y745000D02*
Y754000D01*
X842999Y416001D02*
Y475000D01*
Y416000D02*
X846499D01*
X839999D02*
X842999D01*
Y411001D02*
Y416000D01*
X831000Y678000D02*
Y689000D01*
Y678000D02*
X832274Y676726D01*
Y671401D02*
Y676726D01*
X831000Y670127D02*
X832274Y671401D01*
X831000Y630000D02*
Y670127D01*
X837000Y630500D02*
Y689000D01*
Y630500D02*
X837500Y630000D01*
X946000Y754000D02*
X949000D01*
X943000D02*
X946000D01*
Y812750D01*
X572000Y463500D02*
Y483000D01*
X554000Y463500D02*
Y483000D01*
X536000Y463500D02*
Y483000D01*
X839250Y530000D02*
X856000D01*
X827250Y518000D02*
X839250Y530000D01*
X833499Y416000D02*
Y425501D01*
X827250Y431750D02*
X833499Y425501D01*
X827250Y431750D02*
Y518000D01*
X842999Y475000D02*
Y500999D01*
Y475000D02*
X845999D01*
X839999D02*
X842999D01*
Y500999D02*
X855998Y513999D01*
X858000Y627000D02*
X870998Y614002D01*
Y613999D02*
Y614002D01*
X865000Y611000D02*
X871000Y605000D01*
X858000Y611000D02*
X865000D01*
X824500Y675500D02*
X826000Y674000D01*
X824500Y675500D02*
Y689000D01*
X955500Y801500D02*
Y813000D01*
X929000Y829000D02*
X937000D01*
X902000Y802000D02*
X929000Y829000D01*
X881274Y802000D02*
X902000D01*
X879000Y804274D02*
X881274Y802000D01*
X879000Y804274D02*
Y813000D01*
X949000Y742000D02*
Y754000D01*
X955500Y765500D02*
X955500D01*
Y754000D02*
Y765500D01*
X885500Y754000D02*
Y766500D01*
X892274Y837274D02*
X944726D01*
X837500Y620500D02*
Y630000D01*
Y620500D02*
X840000Y618000D01*
X849000D01*
X858000Y627000D01*
X824500Y617500D02*
Y630000D01*
Y617500D02*
X831000Y611000D01*
X858000D01*
X863000Y346000D02*
X871000Y338000D01*
X863000Y346000D02*
Y388000D01*
X851000Y400000D02*
X863000Y388000D01*
X847000Y644000D02*
X861000D01*
X847500Y662500D02*
X860500D01*
X944726Y837274D02*
X953000Y829000D01*
X884000Y829000D02*
X892274Y837274D01*
X872500Y813000D02*
X879000D01*
X942500Y813000D02*
X949000D01*
Y754000D02*
Y813000D01*
X942500Y754000D02*
Y813000D01*
X866000Y797000D02*
Y813000D01*
X849000Y774000D02*
X861000D01*
X866000Y769000D01*
Y754000D02*
Y769000D01*
X919000Y792000D02*
X932000D01*
X936000Y796000D01*
Y813000D01*
X919000Y774000D02*
X931000D01*
X936000Y769000D01*
Y754000D02*
Y769000D01*
X937000Y829000D02*
X942500Y823500D01*
Y813000D02*
Y823500D01*
X955500Y813000D02*
Y826500D01*
X885500Y813000D02*
Y827500D01*
X868000Y829000D02*
X872500Y824500D01*
Y813000D02*
Y824500D01*
X844000Y641000D02*
X847000Y644000D01*
X844000Y630000D02*
Y641000D01*
Y666000D02*
X847500Y662500D01*
X844000Y666000D02*
Y689000D01*
X846499Y416000D02*
Y475000D01*
X839999Y416000D02*
Y475000D01*
X846499Y404501D02*
X851000Y400000D01*
X846499Y404501D02*
Y416000D01*
X833499Y401501D02*
Y416000D01*
X852999Y436999D02*
X853000Y437000D01*
X852999Y416000D02*
Y436999D01*
Y455001D02*
X853000Y455000D01*
X852999Y455001D02*
Y475000D01*
X653000Y346500D02*
X663250D01*
X628500D02*
X653000D01*
X644000Y314500D02*
Y330000D01*
X644000Y330000D02*
Y345500D01*
X762000Y292000D02*
X800000Y330000D01*
X743000Y292000D02*
X762000D01*
X700000Y340000D02*
X720750D01*
X814000Y393000D02*
Y407500D01*
X736000Y340000D02*
X742000Y334000D01*
X720750Y340000D02*
X736000D01*
X720750Y353000D02*
X739000D01*
X720750Y346500D02*
X729500D01*
X740000Y399500D02*
X755500Y384000D01*
X756500D01*
Y368000D02*
X772000D01*
X756500Y384000D02*
X772000D01*
X728000Y372500D02*
X739500Y384000D01*
X720750Y372500D02*
X728000D01*
X737500Y366000D02*
X739500Y368000D01*
X720750Y366000D02*
X737500D01*
X657000Y546000D02*
Y572000D01*
Y526000D02*
Y546000D01*
X653000Y522000D02*
X657000Y526000D01*
X644500Y522000D02*
X653000D01*
X627500D02*
Y537000D01*
X628000Y537500D01*
X644000D01*
X644000Y554500D02*
Y570000D01*
X653000Y585500D02*
X663250D01*
X644000D02*
X653000D01*
X644000Y570000D02*
Y585500D01*
X628500Y585500D02*
X644000D01*
X720750D02*
X729500D01*
X729000Y585726D02*
X729274D01*
X729500Y585500D01*
X609000Y786500D02*
X627000D01*
X656500Y802500D02*
X663250D01*
X654000Y800000D02*
X656500Y802500D01*
X654000Y794000D02*
Y800000D01*
Y759000D02*
Y794000D01*
X649000Y754000D02*
X654000Y759000D01*
X643500Y754000D02*
X649000D01*
X626500D02*
Y769000D01*
X627000Y769500D01*
X643000D01*
X643000Y786500D02*
Y802000D01*
X721024Y822274D02*
X739274D01*
X720750Y822000D02*
X721024Y822274D01*
X720750Y809000D02*
X738000D01*
X705000D02*
X720750D01*
X643000Y808750D02*
Y815500D01*
Y802000D02*
Y808750D01*
Y815500D02*
X663250D01*
X629500D02*
X643000D01*
Y817500D01*
X720750Y815500D02*
X730500D01*
X731000Y816000D01*
X834000Y625000D02*
Y694000D01*
X772000Y368000D02*
X777000D01*
X783000Y374000D01*
D30*
X845000Y908000D02*
X898000D01*
X829000Y892000D02*
X845000Y908000D01*
X829000Y790000D02*
Y892000D01*
X860500Y882500D02*
X898000D01*
X622000Y256000D02*
X681250D01*
X622000Y857000D02*
X684774D01*
X609000Y844000D02*
X622000Y857000D01*
X609000Y269000D02*
X622000Y256000D01*
X883000Y593000D02*
Y618272D01*
X875000Y585000D02*
X883000Y593000D01*
X827000Y585000D02*
X875000D01*
X803000Y558000D02*
X818000D01*
X827000Y567000D01*
Y585000D01*
Y596000D01*
X874000Y627272D02*
Y638000D01*
X868000Y644000D02*
X874000Y638000D01*
X864000Y644000D02*
X868000D01*
X874000Y627272D02*
X883000Y618272D01*
X861000Y662500D02*
X898000D01*
X861000D02*
Y680500D01*
Y662000D02*
Y662500D01*
X772971Y643000D02*
X807000Y608970D01*
X749500Y643000D02*
X772971D01*
X807000Y597812D02*
Y608970D01*
X797000Y725000D02*
Y735000D01*
Y715000D02*
Y725000D01*
Y705000D02*
Y715000D01*
X816000Y754000D02*
X832500D01*
X797000Y735000D02*
X816000Y754000D01*
X721000Y713000D02*
X731000D01*
X751000Y704000D02*
X761000D01*
X741000D02*
X751000D01*
X731000D02*
X741000D01*
X721000D02*
X731000D01*
X703250D02*
X721000D01*
X731000D02*
Y713000D01*
X721000Y704000D02*
Y713000D01*
X679250Y728000D02*
X703250Y704000D01*
X904000Y625000D02*
Y631000D01*
Y615000D02*
Y625000D01*
X898000Y637000D02*
X904000Y631000D01*
X849000Y792000D02*
X919000D01*
X849000D02*
Y820000D01*
Y824000D01*
X806000Y873000D02*
Y914000D01*
X794000Y847000D02*
X808000D01*
X788000Y853000D02*
X794000Y847000D01*
X788000Y853000D02*
Y873000D01*
X883000Y688000D02*
X898000D01*
X816500Y412000D02*
Y531000D01*
X660000Y416500D02*
X740000D01*
X609500D02*
X660000D01*
Y390000D02*
Y416500D01*
Y377000D02*
Y390000D01*
X609500Y647500D02*
X660000D01*
X740000Y416500D02*
X757000D01*
X757500Y412000D02*
X773000D01*
X806000Y379000D01*
Y367000D02*
Y379000D01*
X610000Y497000D02*
X680250D01*
X826000Y340000D02*
Y367000D01*
X816000Y330000D02*
X826000Y340000D01*
X800000Y330000D02*
X816000D01*
X609000Y269000D02*
Y786500D01*
X660000Y647500D02*
X748000D01*
X870000Y857000D02*
X898000D01*
X860000D02*
X870000D01*
X860500Y933500D02*
X898000D01*
X39000Y313000D02*
X64000D01*
X39000Y287500D02*
X64500D01*
X65000Y144000D02*
Y333000D01*
Y93000D02*
Y144000D01*
X39000D02*
X65000D01*
X39000Y118500D02*
X64500D01*
X65000Y73000D02*
Y93000D01*
X39000D02*
X65000D01*
X39000Y67500D02*
X59500D01*
X65000Y73000D01*
X59500Y338500D02*
X65000Y333000D01*
X39000Y338500D02*
X59500D01*
X39000Y688500D02*
X59500D01*
X77000Y706000D01*
Y866000D01*
X39000Y934000D02*
X60000D01*
X107000Y887000D01*
Y685000D02*
Y887000D01*
X59500Y637500D02*
X107000Y685000D01*
X39000Y637500D02*
X59500D01*
X39000Y663000D02*
X60000D01*
X92000Y695000D01*
Y876000D01*
X59500Y908500D02*
X92000Y876000D01*
X39000Y908500D02*
X59500D01*
X39000Y883000D02*
X60000D01*
X77000Y866000D01*
X39000Y714000D02*
X56000D01*
X62000Y720000D01*
Y853000D01*
X57500Y857500D02*
X62000Y853000D01*
X39000Y857500D02*
X57500D01*
X586000Y799000D02*
X588000Y801000D01*
X609000D01*
X586000Y799000D02*
Y841000D01*
Y883000D01*
X609000Y786500D02*
Y801000D01*
Y844000D01*
X902500Y750500D02*
Y754000D01*
X808000Y651500D02*
Y671000D01*
X780000Y699000D02*
X808000Y671000D01*
X780000Y699000D02*
Y741000D01*
X829000Y790000D01*
X861000Y697500D02*
Y715000D01*
X797000D02*
X861000D01*
Y719000D01*
X876476Y734476D01*
X885853D01*
X901877Y750500D01*
X919500Y743500D02*
Y754000D01*
X898000Y722000D02*
X919500Y743500D01*
X898000Y713500D02*
Y722000D01*
X849500Y754000D02*
Y773500D01*
Y734107D02*
Y754000D01*
X919500D02*
Y772500D01*
D31*
X554000Y527000D02*
X572000D01*
X536000D02*
X554000D01*
X694000Y168000D02*
X724500Y137500D01*
X743000D01*
X837000Y181000D02*
X871800Y215800D01*
Y242000D01*
X837000Y197000D02*
X850024Y210024D01*
Y215909D01*
X846400Y219533D02*
X850024Y215909D01*
X846400Y219533D02*
Y242000D01*
X837000Y181000D02*
X837524D01*
X811000Y142500D02*
X817250Y148750D01*
X811000Y141500D02*
Y142500D01*
X835000Y383500D02*
X854500Y364000D01*
X835000Y383500D02*
Y400000D01*
X609500Y554500D02*
X628000D01*
X854500Y338500D02*
Y364000D01*
X871000Y338000D02*
X898000D01*
X871500Y364000D02*
X897500D01*
X758900Y138024D02*
X759000Y137924D01*
X520250Y345000D02*
X523000D01*
X537000Y331000D01*
X520250Y279000D02*
X537000D01*
X537000Y70000D02*
X549000Y58000D01*
X697000D01*
X520250Y103000D02*
X537000D01*
Y70000D02*
Y331000D01*
X572000Y524000D02*
Y527000D01*
X841500Y324500D02*
X855000Y338000D01*
X841500Y246900D02*
X846400Y242000D01*
X841500Y246900D02*
Y265000D01*
Y324500D01*
X858000Y255800D02*
X871800Y242000D01*
X858000Y255800D02*
Y325000D01*
X871000Y338000D01*
D32*
X756000Y553000D02*
X761000Y558000D01*
X756000Y563000D02*
X761000Y558000D01*
X756000Y553000D02*
Y563000D01*
X752000Y786000D02*
X757000Y791000D01*
X752000Y796000D02*
X757000Y791000D01*
X752000Y786000D02*
Y796000D01*
X753524Y334476D02*
X758000Y330000D01*
X753000Y325000D02*
X758000Y330000D01*
X753000Y325000D02*
Y335000D01*
X707000Y197000D02*
X707000Y197000D01*
X837000D01*
X705000Y835000D02*
Y858000D01*
X684774Y857000D02*
X711774Y884000D01*
X777000D01*
X788000Y873000D01*
X772000Y871000D02*
X786000D01*
X692000Y343000D02*
Y353000D01*
X849000Y820000D02*
X854000D01*
X845000D02*
X849000D01*
X845000Y829000D02*
X854000D01*
Y820000D02*
Y829000D01*
X845000Y820000D02*
Y829000D01*
X812000Y797000D02*
Y827000D01*
X806000Y791000D02*
X812000Y797000D01*
X799000Y791000D02*
X806000D01*
X692000Y363000D02*
Y384000D01*
Y353000D02*
Y363000D01*
X686000Y390000D02*
X692000Y384000D01*
X676000Y390000D02*
X686000D01*
X692000Y602000D02*
Y624000D01*
Y592000D02*
Y602000D01*
X687000Y629000D02*
X692000Y624000D01*
X676000Y629000D02*
X687000D01*
X660000Y615000D02*
Y629000D01*
Y647500D01*
X611000Y728000D02*
X679250D01*
X692000Y822000D02*
Y832000D01*
D33*
X752000Y796000D02*
Y796000D01*
X609500Y314500D02*
X628000D01*
X807000Y596000D02*
Y597812D01*
D34*
X837000Y168500D02*
Y181000D01*
X817250Y148750D02*
X837000Y168500D01*
X743000Y120500D02*
X758500D01*
X759000Y121000D02*
Y123000D01*
Y109000D02*
Y121000D01*
X837000Y197000D02*
Y208000D01*
X804250Y161750D02*
X817250Y148750D01*
X804250Y161750D02*
Y176250D01*
X810750Y109250D02*
Y124250D01*
X809500Y140000D02*
X811000Y141500D01*
X762000Y140000D02*
X809500D01*
D35*
X849500Y140500D02*
X862000Y153000D01*
X831000Y140500D02*
X849500D01*
X831000Y111500D02*
X849000D01*
X730000Y631500D02*
X737524Y623976D01*
X751524D01*
X760500Y615000D01*
X808500Y633500D02*
X816000Y626000D01*
Y620000D02*
Y626000D01*
X806000Y861000D02*
Y873000D01*
X805000Y860000D02*
X806000Y861000D01*
X784998Y838998D02*
X785000Y839000D01*
X784998Y838998D02*
Y838998D01*
X771000Y839000D02*
X785000D01*
X755500Y855000D02*
Y870000D01*
Y855000D02*
X771000D01*
X627500Y282000D02*
Y297000D01*
X628000Y297500D01*
X644000D01*
X682000Y320000D02*
Y328001D01*
X670001Y340000D02*
X682000Y328001D01*
X663250Y340000D02*
X670001D01*
X656000Y325000D02*
Y333000D01*
Y293500D02*
Y325000D01*
X644500Y282000D02*
X656000Y293500D01*
X670001Y579000D02*
X679750Y569251D01*
Y558750D02*
Y569251D01*
X760999Y519999D02*
X799000Y558000D01*
X741999Y519999D02*
X760999D01*
X705000Y579000D02*
X720750D01*
X727501D01*
X740000Y566501D01*
Y565000D02*
Y566501D01*
X731495Y591750D02*
X740000Y583245D01*
X721000Y591750D02*
X731495D01*
X720750Y592000D02*
X721000Y591750D01*
X757723Y615000D02*
X760500D01*
X740000Y611500D02*
X743500Y615000D01*
X720750Y611500D02*
X740000D01*
X737500Y605000D02*
X743500Y599000D01*
X721750Y605000D02*
X737500D01*
X776364Y599000D02*
X788000Y610636D01*
X760500Y615000D02*
X776000D01*
X760500Y599000D02*
X776000D01*
X679000Y787000D02*
Y800002D01*
X670001Y809000D02*
X679000Y800002D01*
X663250Y809000D02*
X670001D01*
X742000Y749000D02*
X753000D01*
X795000Y791000D01*
X799000D01*
X755500Y839000D02*
X771000D01*
X725000Y841500D02*
X738500Y855000D01*
X720750Y841500D02*
X725000D01*
X734500Y835000D02*
X738500Y839000D01*
X720750Y835000D02*
X734500D01*
X572000Y424000D02*
Y446500D01*
X536000Y424000D02*
Y446500D01*
X558524Y410524D02*
X572000Y424000D01*
X558524Y83476D02*
Y410524D01*
Y83476D02*
X568024Y73976D01*
X554000Y79476D02*
X564024Y69452D01*
X554000Y79476D02*
Y446500D01*
X549000Y74000D02*
X558072Y64928D01*
X549000Y74000D02*
Y411000D01*
X536000Y424000D02*
X549000Y411000D01*
X862952Y52952D02*
X870000Y60000D01*
X852476Y57476D02*
X860000Y65000D01*
X845000Y62000D02*
X852000Y69000D01*
X716000Y62000D02*
X845000D01*
X714126Y57476D02*
X852476D01*
X712252Y52952D02*
X862952D01*
X558072Y64928D02*
X700276D01*
X712252Y52952D01*
X564024Y69452D02*
X702150D01*
X714126Y57476D01*
X568024Y73976D02*
X704024D01*
X716000Y62000D01*
D36*
X875500Y813000D02*
D03*
D37*
X772500Y877500D02*
D03*
D38*
X660000Y613500D02*
D03*
D39*
X563000Y592000D02*
D03*
X529000D02*
D03*
D40*
X563000Y617400D02*
D03*
Y642800D02*
D03*
X922600Y242000D02*
D03*
X897200D02*
D03*
X871800D02*
D03*
X846400D02*
D03*
X529000Y642800D02*
D03*
Y617400D02*
D03*
D41*
X940000Y500000D02*
D03*
X670000Y130000D02*
D03*
Y899000D02*
D03*
D42*
X821000Y242000D02*
D03*
D43*
X826000Y367000D02*
D03*
X827000Y596000D02*
D03*
D44*
X806000Y367000D02*
D03*
X812000Y847000D02*
D03*
X807000Y596000D02*
D03*
D45*
X812000Y827000D02*
D03*
D46*
X586000Y883000D02*
D03*
Y841000D02*
D03*
Y799000D02*
D03*
Y757000D02*
D03*
X531000Y883000D02*
D03*
Y841000D02*
D03*
Y799000D02*
D03*
Y757000D02*
D03*
D47*
X535500Y930500D02*
D03*
Y709500D02*
D03*
D48*
X753000Y728000D02*
D03*
X679250D02*
D03*
X754000Y497000D02*
D03*
X680250D02*
D03*
X755000Y256000D02*
D03*
X681250D02*
D03*
D49*
X821000Y100000D02*
D03*
X876000Y775000D02*
D03*
X587999Y558999D02*
D03*
X753000Y325000D02*
D03*
Y335000D02*
D03*
X756000Y553000D02*
D03*
Y563000D02*
D03*
X752000Y786000D02*
D03*
Y796000D02*
D03*
X862000Y153000D02*
D03*
X742000Y102000D02*
D03*
X719000Y129000D02*
D03*
X695000Y98000D02*
D03*
X723000Y153000D02*
D03*
X709000Y139000D02*
D03*
X620000Y194000D02*
D03*
X621000Y217000D02*
D03*
X640000Y158000D02*
D03*
X625000D02*
D03*
X707000Y207000D02*
D03*
Y187000D02*
D03*
Y197000D02*
D03*
X694000Y168000D02*
D03*
X843250Y151750D02*
D03*
X862000Y196000D02*
D03*
X697000Y58000D02*
D03*
X642000Y256000D02*
D03*
X632000D02*
D03*
X622000D02*
D03*
X757000Y173000D02*
D03*
X758750Y223750D02*
D03*
X843000Y213000D02*
D03*
X706000Y91000D02*
D03*
X837000Y208000D02*
D03*
X735000Y262000D02*
D03*
X727000Y500000D02*
D03*
X771524Y94524D02*
D03*
X778000Y89000D02*
D03*
X785000Y83000D02*
D03*
X792000Y77000D02*
D03*
X875000Y287000D02*
D03*
Y313000D02*
D03*
X871000Y389000D02*
D03*
X875000Y396000D02*
D03*
X874998Y403999D02*
D03*
X881000Y410000D02*
D03*
X863998Y562999D02*
D03*
X858998Y555999D02*
D03*
X853000Y551000D02*
D03*
X856000Y530000D02*
D03*
X855998Y513999D02*
D03*
X870998Y613999D02*
D03*
X826000Y674000D02*
D03*
X876000Y745000D02*
D03*
X885500Y768500D02*
D03*
X956000Y801000D02*
D03*
X949000Y742000D02*
D03*
X955500Y765500D02*
D03*
X871000Y605000D02*
D03*
X904000Y615000D02*
D03*
Y625000D02*
D03*
X851000Y741000D02*
D03*
X797000Y705000D02*
D03*
Y715000D02*
D03*
Y725000D02*
D03*
Y735000D02*
D03*
X721000Y714000D02*
D03*
X731000D02*
D03*
X721000Y704000D02*
D03*
X731000D02*
D03*
X741000D02*
D03*
X751000D02*
D03*
X761000D02*
D03*
X845000Y820000D02*
D03*
X854000D02*
D03*
Y829000D02*
D03*
X845000D02*
D03*
X806000Y894000D02*
D03*
Y904000D02*
D03*
X806000Y914000D02*
D03*
X805000Y860000D02*
D03*
X784998Y838998D02*
D03*
X854000Y437000D02*
D03*
Y455000D02*
D03*
X876000Y699000D02*
D03*
X883000Y691000D02*
D03*
X816000Y521000D02*
D03*
Y531000D02*
D03*
X758000Y330000D02*
D03*
X682000Y320000D02*
D03*
X636539Y354063D02*
D03*
X653000Y346500D02*
D03*
X656000Y325000D02*
D03*
X743000Y292000D02*
D03*
X783000Y374000D02*
D03*
X814000Y393000D02*
D03*
X790000Y380000D02*
D03*
X729500Y346500D02*
D03*
X870000Y882000D02*
D03*
X860000D02*
D03*
X679750Y558750D02*
D03*
X741999Y519999D02*
D03*
X657000Y546000D02*
D03*
X636398Y594000D02*
D03*
X653000Y585500D02*
D03*
X788000Y611000D02*
D03*
X761000Y558000D02*
D03*
X729000Y585726D02*
D03*
X790000Y601000D02*
D03*
X816000Y620000D02*
D03*
X870000Y857000D02*
D03*
X860000D02*
D03*
X870000Y933000D02*
D03*
X860500Y933500D02*
D03*
X679000Y787000D02*
D03*
X652999Y821998D02*
D03*
X742000Y749000D02*
D03*
X765250Y140750D02*
D03*
X817250Y148750D02*
D03*
X804250Y176250D02*
D03*
X759000Y109000D02*
D03*
X810750Y109250D02*
D03*
X654000Y794000D02*
D03*
X754999Y827998D02*
D03*
X757000Y791000D02*
D03*
X731000Y816000D02*
D03*
X643000Y810000D02*
D03*
X576000Y375000D02*
D03*
X573000Y121000D02*
D03*
X852000Y69000D02*
D03*
X860000Y65000D02*
D03*
X870000Y60000D02*
D03*
X562000Y527000D02*
D03*
X546000D02*
D03*
X799998Y73000D02*
D03*
X808998D02*
D03*
X833998Y697999D02*
D03*
X577000Y310000D02*
D03*
X851000Y732607D02*
D03*
X713000Y85000D02*
D03*
X817000Y73000D02*
D03*
D50*
X682000Y822000D02*
D03*
X692000Y822000D02*
D03*
X682000Y812000D02*
D03*
X692000D02*
D03*
Y832000D02*
D03*
X682000D02*
D03*
X702000Y822000D02*
D03*
Y812000D02*
D03*
Y832000D02*
D03*
X682000Y592000D02*
D03*
X692000Y592000D02*
D03*
X682000Y582000D02*
D03*
X692000D02*
D03*
Y602000D02*
D03*
X682000D02*
D03*
X702000Y592000D02*
D03*
Y582000D02*
D03*
Y602000D02*
D03*
X682000Y353000D02*
D03*
X692000Y353000D02*
D03*
X682000Y343000D02*
D03*
X692000D02*
D03*
Y363000D02*
D03*
X682000D02*
D03*
X702000Y353000D02*
D03*
Y343000D02*
D03*
Y363000D02*
D03*
M02*
