%FSLAX44Y44*%
%MOMM*%
G71*
G01*
G75*
G04 Layer_Color=16711935*
%ADD10R,3.0000X1.2000*%
%ADD11R,1.3000X0.8000*%
%ADD12R,1.0000X0.9000*%
%ADD13R,1.8000X1.3000*%
%ADD14R,1.0000X1.0000*%
%ADD15R,1.3000X1.5000*%
%ADD16R,1.5000X1.3000*%
%ADD17R,1.4000X1.2000*%
%ADD18R,1.6000X0.8000*%
%ADD19R,1.3000X3.4000*%
%ADD20R,0.9000X1.0000*%
%ADD21R,1.0000X1.0000*%
G04:AMPARAMS|DCode=22|XSize=1.4mm|YSize=2mm|CornerRadius=0.14mm|HoleSize=0mm|Usage=FLASHONLY|Rotation=0.000|XOffset=0mm|YOffset=0mm|HoleType=Round|Shape=RoundedRectangle|*
%AMROUNDEDRECTD22*
21,1,1.4000,1.7200,0,0,0.0*
21,1,1.1200,2.0000,0,0,0.0*
1,1,0.2800,0.5600,-0.8600*
1,1,0.2800,-0.5600,-0.8600*
1,1,0.2800,-0.5600,0.8600*
1,1,0.2800,0.5600,0.8600*
%
%ADD22ROUNDEDRECTD22*%
G04:AMPARAMS|DCode=23|XSize=1mm|YSize=2mm|CornerRadius=0.1mm|HoleSize=0mm|Usage=FLASHONLY|Rotation=0.000|XOffset=0mm|YOffset=0mm|HoleType=Round|Shape=RoundedRectangle|*
%AMROUNDEDRECTD23*
21,1,1.0000,1.8000,0,0,0.0*
21,1,0.8000,2.0000,0,0,0.0*
1,1,0.2000,0.4000,-0.9000*
1,1,0.2000,-0.4000,-0.9000*
1,1,0.2000,-0.4000,0.9000*
1,1,0.2000,0.4000,0.9000*
%
%ADD23ROUNDEDRECTD23*%
%ADD24R,1.2000X1.4000*%
G04:AMPARAMS|DCode=25|XSize=0.45mm|YSize=1.45mm|CornerRadius=0.045mm|HoleSize=0mm|Usage=FLASHONLY|Rotation=180.000|XOffset=0mm|YOffset=0mm|HoleType=Round|Shape=RoundedRectangle|*
%AMROUNDEDRECTD25*
21,1,0.4500,1.3600,0,0,180.0*
21,1,0.3600,1.4500,0,0,180.0*
1,1,0.0900,-0.1800,0.6800*
1,1,0.0900,0.1800,0.6800*
1,1,0.0900,0.1800,-0.6800*
1,1,0.0900,-0.1800,-0.6800*
%
%ADD25ROUNDEDRECTD25*%
%ADD26R,3.0000X3.1000*%
%ADD27O,1.6500X0.3500*%
%ADD28C,0.2000*%
%ADD29C,0.3500*%
%ADD30C,1.2000*%
%ADD31C,0.5000*%
%ADD32C,1.0000*%
%ADD33C,0.8000*%
%ADD34C,0.4500*%
%ADD35C,0.3000*%
%ADD36R,0.3000X1.4000*%
%ADD37R,1.1000X0.3000*%
%ADD38R,1.0000X0.5000*%
%ADD39R,1.5000X1.5000*%
%ADD40C,1.5000*%
%ADD41C,6.5000*%
%ADD42R,1.5000X1.5000*%
%ADD43R,1.3500X1.3500*%
%ADD44C,1.3500*%
%ADD45R,1.3500X1.3500*%
%ADD46C,2.8000*%
%ADD47C,3.0000*%
%ADD48C,2.0000*%
%ADD49C,0.6000*%
%ADD50C,0.5000*%
%ADD51R,0.6000X1.1500*%
G04:AMPARAMS|DCode=52|XSize=6.2mm|YSize=5.8mm|CornerRadius=0.29mm|HoleSize=0mm|Usage=FLASHONLY|Rotation=90.000|XOffset=0mm|YOffset=0mm|HoleType=Round|Shape=RoundedRectangle|*
%AMROUNDEDRECTD52*
21,1,6.2000,5.2200,0,0,90.0*
21,1,5.6200,5.8000,0,0,90.0*
1,1,0.5800,2.6100,2.8100*
1,1,0.5800,2.6100,-2.8100*
1,1,0.5800,-2.6100,-2.8100*
1,1,0.5800,-2.6100,2.8100*
%
%ADD52ROUNDEDRECTD52*%
G04:AMPARAMS|DCode=53|XSize=3mm|YSize=1.6mm|CornerRadius=0.08mm|HoleSize=0mm|Usage=FLASHONLY|Rotation=90.000|XOffset=0mm|YOffset=0mm|HoleType=Round|Shape=RoundedRectangle|*
%AMROUNDEDRECTD53*
21,1,3.0000,1.4400,0,0,90.0*
21,1,2.8400,1.6000,0,0,90.0*
1,1,0.1600,0.7200,1.4200*
1,1,0.1600,0.7200,-1.4200*
1,1,0.1600,-0.7200,-1.4200*
1,1,0.1600,-0.7200,1.4200*
%
%ADD53ROUNDEDRECTD53*%
%ADD54R,1.5000X0.6000*%
%ADD55R,1.1500X0.6000*%
%ADD56O,0.4500X2.1000*%
%ADD57R,2.4000X1.0000*%
%ADD58R,2.4000X3.3000*%
%ADD59R,1.3000X2.7000*%
%ADD60C,0.1540*%
%ADD61C,0.2500*%
%ADD62C,0.1000*%
%ADD63C,0.1270*%
%ADD64R,3.1000X1.3000*%
%ADD65R,1.4000X0.9000*%
%ADD66R,1.1000X1.0000*%
%ADD67R,1.9000X1.4000*%
%ADD68R,1.1000X1.1000*%
%ADD69R,1.4000X1.6000*%
%ADD70R,1.6000X1.4000*%
%ADD71R,1.7000X0.9000*%
%ADD72R,1.4000X3.5000*%
%ADD73R,1.0000X1.1000*%
%ADD74R,1.1000X1.1000*%
G04:AMPARAMS|DCode=75|XSize=1.5mm|YSize=2.1mm|CornerRadius=0.19mm|HoleSize=0mm|Usage=FLASHONLY|Rotation=0.000|XOffset=0mm|YOffset=0mm|HoleType=Round|Shape=RoundedRectangle|*
%AMROUNDEDRECTD75*
21,1,1.5000,1.7200,0,0,0.0*
21,1,1.1200,2.1000,0,0,0.0*
1,1,0.3800,0.5600,-0.8600*
1,1,0.3800,-0.5600,-0.8600*
1,1,0.3800,-0.5600,0.8600*
1,1,0.3800,0.5600,0.8600*
%
%ADD75ROUNDEDRECTD75*%
G04:AMPARAMS|DCode=76|XSize=1.1mm|YSize=2.1mm|CornerRadius=0.15mm|HoleSize=0mm|Usage=FLASHONLY|Rotation=0.000|XOffset=0mm|YOffset=0mm|HoleType=Round|Shape=RoundedRectangle|*
%AMROUNDEDRECTD76*
21,1,1.1000,1.8000,0,0,0.0*
21,1,0.8000,2.1000,0,0,0.0*
1,1,0.3000,0.4000,-0.9000*
1,1,0.3000,-0.4000,-0.9000*
1,1,0.3000,-0.4000,0.9000*
1,1,0.3000,0.4000,0.9000*
%
%ADD76ROUNDEDRECTD76*%
G04:AMPARAMS|DCode=77|XSize=0.55mm|YSize=1.55mm|CornerRadius=0.095mm|HoleSize=0mm|Usage=FLASHONLY|Rotation=180.000|XOffset=0mm|YOffset=0mm|HoleType=Round|Shape=RoundedRectangle|*
%AMROUNDEDRECTD77*
21,1,0.5500,1.3600,0,0,180.0*
21,1,0.3600,1.5500,0,0,180.0*
1,1,0.1900,-0.1800,0.6800*
1,1,0.1900,0.1800,0.6800*
1,1,0.1900,0.1800,-0.6800*
1,1,0.1900,-0.1800,-0.6800*
%
%ADD77ROUNDEDRECTD77*%
%ADD78R,3.1000X3.2000*%
%ADD79O,1.7500X0.4500*%
%ADD80R,1.6000X1.6000*%
%ADD81C,1.6000*%
%ADD82C,6.6000*%
%ADD83R,1.6000X1.6000*%
%ADD84R,1.4500X1.4500*%
%ADD85C,1.4500*%
%ADD86R,1.4500X1.4500*%
%ADD87C,2.9000*%
%ADD88C,3.1000*%
%ADD89C,2.1000*%
%ADD90R,0.7000X1.2500*%
G04:AMPARAMS|DCode=91|XSize=6.3mm|YSize=5.9mm|CornerRadius=0.34mm|HoleSize=0mm|Usage=FLASHONLY|Rotation=90.000|XOffset=0mm|YOffset=0mm|HoleType=Round|Shape=RoundedRectangle|*
%AMROUNDEDRECTD91*
21,1,6.3000,5.2200,0,0,90.0*
21,1,5.6200,5.9000,0,0,90.0*
1,1,0.6800,2.6100,2.8100*
1,1,0.6800,2.6100,-2.8100*
1,1,0.6800,-2.6100,-2.8100*
1,1,0.6800,-2.6100,2.8100*
%
%ADD91ROUNDEDRECTD91*%
G04:AMPARAMS|DCode=92|XSize=3.1mm|YSize=1.7mm|CornerRadius=0.13mm|HoleSize=0mm|Usage=FLASHONLY|Rotation=90.000|XOffset=0mm|YOffset=0mm|HoleType=Round|Shape=RoundedRectangle|*
%AMROUNDEDRECTD92*
21,1,3.1000,1.4400,0,0,90.0*
21,1,2.8400,1.7000,0,0,90.0*
1,1,0.2600,0.7200,1.4200*
1,1,0.2600,0.7200,-1.4200*
1,1,0.2600,-0.7200,-1.4200*
1,1,0.2600,-0.7200,1.4200*
%
%ADD92ROUNDEDRECTD92*%
%ADD93R,1.6000X0.7000*%
%ADD94R,1.2500X0.7000*%
%ADD95O,0.5500X2.2000*%
%ADD96R,2.5000X1.1000*%
%ADD97R,2.5000X3.4000*%
%ADD98R,1.4000X2.8000*%
D16*
X840000Y437000D02*
D03*
Y455000D02*
D03*
D66*
X528000Y567500D02*
D03*
Y550500D02*
D03*
X580000Y550500D02*
D03*
Y567500D02*
D03*
X612000Y152500D02*
D03*
Y135500D02*
D03*
X622000Y772500D02*
D03*
Y789500D02*
D03*
X623000Y544500D02*
D03*
Y561500D02*
D03*
X625000Y304500D02*
D03*
Y321500D02*
D03*
X748000Y205500D02*
D03*
Y222500D02*
D03*
X723000Y180500D02*
D03*
Y197500D02*
D03*
X588000Y309500D02*
D03*
Y292500D02*
D03*
Y374500D02*
D03*
Y357500D02*
D03*
Y133500D02*
D03*
Y116500D02*
D03*
D68*
X646000Y757000D02*
D03*
X662000D02*
D03*
X647000Y529000D02*
D03*
X663000D02*
D03*
X649000Y289000D02*
D03*
X665000D02*
D03*
X745000Y90000D02*
D03*
X761000D02*
D03*
X745000Y75000D02*
D03*
X761000D02*
D03*
D69*
X825500Y578000D02*
D03*
X808500D02*
D03*
X839500Y480000D02*
D03*
X822500D02*
D03*
X825500Y348000D02*
D03*
X808500D02*
D03*
D70*
X826000Y828500D02*
D03*
Y845500D02*
D03*
D72*
X728500Y901000D02*
D03*
X787500D02*
D03*
X731500Y673000D02*
D03*
X790500D02*
D03*
X731500Y442000D02*
D03*
X790500D02*
D03*
D73*
X722500Y785000D02*
D03*
X705500D02*
D03*
X671750Y809000D02*
D03*
X654750D02*
D03*
X662500Y741000D02*
D03*
X645500D02*
D03*
X734500Y749000D02*
D03*
X717500D02*
D03*
X676500Y590000D02*
D03*
X659500D02*
D03*
X663500Y513000D02*
D03*
X646500D02*
D03*
X724500Y556000D02*
D03*
X707500D02*
D03*
X735500Y520000D02*
D03*
X718500D02*
D03*
X674500Y353000D02*
D03*
X657500D02*
D03*
X665500Y273000D02*
D03*
X648500D02*
D03*
X724500Y316000D02*
D03*
X707500D02*
D03*
X737500Y280000D02*
D03*
X720500D02*
D03*
X815500Y97000D02*
D03*
X832500D02*
D03*
D80*
X563000Y592000D02*
D03*
X529000D02*
D03*
D81*
X563000Y617400D02*
D03*
Y642800D02*
D03*
X922600Y242000D02*
D03*
X897200D02*
D03*
X871800D02*
D03*
X846400D02*
D03*
X529000Y642800D02*
D03*
Y617400D02*
D03*
D82*
X940000Y500000D02*
D03*
X670000Y130000D02*
D03*
Y899000D02*
D03*
D83*
X821000Y242000D02*
D03*
D84*
X826000Y367000D02*
D03*
X827000Y596000D02*
D03*
D85*
X806000Y367000D02*
D03*
X812000Y847000D02*
D03*
X807000Y596000D02*
D03*
D86*
X812000Y827000D02*
D03*
D87*
X586000Y883000D02*
D03*
Y841000D02*
D03*
Y799000D02*
D03*
Y757000D02*
D03*
X531000Y883000D02*
D03*
Y841000D02*
D03*
Y799000D02*
D03*
Y757000D02*
D03*
D88*
X535500Y930500D02*
D03*
Y709500D02*
D03*
D89*
X753000Y728000D02*
D03*
X679250D02*
D03*
X754000Y497000D02*
D03*
X680250D02*
D03*
X755000Y256000D02*
D03*
X681250D02*
D03*
D90*
X554000Y573250D02*
D03*
X544500Y550750D02*
D03*
X563500D02*
D03*
D91*
X765000Y791250D02*
D03*
X768000Y563250D02*
D03*
X767000Y336250D02*
D03*
D92*
X742250Y863000D02*
D03*
X788000D02*
D03*
X745250Y635000D02*
D03*
X791000D02*
D03*
X744250Y408000D02*
D03*
X790000D02*
D03*
D93*
X640500Y773500D02*
D03*
Y792500D02*
D03*
X659500Y783000D02*
D03*
X641500Y545500D02*
D03*
Y564500D02*
D03*
X660500Y555000D02*
D03*
X643500Y305500D02*
D03*
Y324500D02*
D03*
X662500Y315000D02*
D03*
D94*
X678750Y759000D02*
D03*
X701250Y749500D02*
D03*
Y768500D02*
D03*
X679750Y530000D02*
D03*
X702250Y520500D02*
D03*
Y539500D02*
D03*
X681750Y290000D02*
D03*
X704250Y280500D02*
D03*
Y299500D02*
D03*
D95*
X758750Y192500D02*
D03*
X765250D02*
D03*
X771750D02*
D03*
X778250D02*
D03*
X784750D02*
D03*
X791250D02*
D03*
X797750D02*
D03*
X804250D02*
D03*
X810750D02*
D03*
X817250D02*
D03*
X823750D02*
D03*
X830250D02*
D03*
X836750D02*
D03*
X843250D02*
D03*
X758750Y123500D02*
D03*
X765250D02*
D03*
X771750D02*
D03*
X778250D02*
D03*
X784750D02*
D03*
X791250D02*
D03*
X797750D02*
D03*
X804250D02*
D03*
X810750D02*
D03*
X817250D02*
D03*
X823750D02*
D03*
X830250D02*
D03*
X836750D02*
D03*
X843250D02*
D03*
D96*
X633000Y183000D02*
D03*
Y206000D02*
D03*
Y229000D02*
D03*
D97*
X691000Y206000D02*
D03*
D98*
X579500Y222000D02*
D03*
X608500D02*
D03*
X579500Y189000D02*
D03*
X608500D02*
D03*
M02*
