M48
;Layer_Color=9474304
;FILE_FORMAT=4:4
METRIC,TZ
;TYPE=PLATED
T1F00S00C0.3000
T2F00S00C0.8000
T3F00S00C0.9000
T4F00S00C1.1000
T5F00S00C1.8000
T6F00S00C4.0000
;TYPE=NON_PLATED
T7F00S00C3.0000
%
T01
X573000Y121000
X625000Y158000
X640000
X620000Y194000
X621000Y217000
X622000Y256000
X632000
X642000
X656000Y325000
X653000Y346500
X636539Y354063
X682000Y353000
Y343000
X692000
Y353000
Y363000
X682000
X702000Y363000
Y353000
Y343000
X729500Y346500
X753000Y335000
Y325000
X758000Y330000
X743000Y292000
X735000Y262000
X758750Y223750
X757000Y173000
X765250Y140750
X759000Y109000
X742000Y102000
X771524Y94524
X778000Y89000
X785000Y83000
X792000Y77000
X713000Y85000
X706000Y91000
X695000Y98000
X697000Y58000
X719000Y129000
X709000Y139000
X723000Y153000
X694000Y168000
X707000Y187000
Y197000
Y207000
X682000Y320000
X577000Y310000
X576000Y375000
X783000Y374000
X790000Y380000
X814000Y393000
X871000Y389000
X875000Y396000
Y313000
Y287000
X862000Y196000
X843000Y213000
X837000Y208000
X843250Y151750
X862000Y153000
X817250Y148750
X804250Y176250
X810750Y109250
X821000Y100000
X817000Y73000
X808998Y73000
X799998
X852000Y69000
X860000Y65000
X870000Y60000
X874998Y403999
X881000Y410000
X854000Y437000
Y455000
X855998Y513999
X856000Y530000
X853000Y551000
X858998Y555999
X863998Y562999
X871000Y605000
X870998Y613999
X904000Y615000
Y625000
X883000Y691000
X876000Y699000
X833998Y697999
X826000Y674000
X797000Y705000
Y715000
Y725000
Y735000
X851000Y732607
Y741000
X876000Y745000
Y775000
X885500Y768500
X955500Y765500
X949000Y742000
X816000Y620000
Y531000
Y521000
X741999Y519999
X727000Y500000
X756000Y553000
Y563000
X761000Y558000
X729000Y585726
X702000Y582000
Y592000
X692000
Y602000
X682000
Y592000
Y582000
X692000
X702000Y602000
X653000Y585500
X636398Y594000
X657000Y546000
X679750Y558750
X587999Y558999
X562000Y527000
X546000
X790000Y601000
X788000Y611000
X761000Y704000
X751000
X741000
X731000
Y714000
X721000
Y704000
X742000Y749000
X752000Y786000
X757000Y791000
X679000Y787000
X682000Y812000
Y822000
X692000Y822000
Y832000
X682000
X702000Y832000
Y822000
Y812000
X692000Y812000
X731000Y816000
X754999Y827998
X752000Y796000
X784998Y838998
X652999Y821998
X643000Y810000
X654000Y794000
X805000Y860000
X806000Y894000
Y904000
X806000Y914000
X860500Y933500
X870000Y933000
Y882000
X860000
Y857000
X870000
X854000Y829000
Y820000
X845000
Y829000
X956000Y801000
T02
X806000Y367000
X826000
X827000Y596000
X807000
X812000Y827000
Y847000
T03
X821000Y242000
X846400
X871800
X897200
X922600
X563000Y592000
Y617400
Y642800
X529000
Y617400
Y592000
T04
X681250Y256000
X755000
X754000Y497000
X680250
X679250Y728000
X753000
T05
X531000Y757000
X586000
Y799000
Y841000
Y883000
X531000
Y841000
Y799000
T06
X670000Y130000
X940000Y500000
X670000Y899000
T07
X535500Y709500
Y930500
M30
